<svg width="34" height="35" viewBox="0 0 34 35" fill="none" xmlns="http://www.w3.org/2000/svg">
<circle cx="17" cy="17.8674" r="17" fill="#7080A2"/>
<path d="M24 26.8674L28.5 29.3674L20 33.3674H12L6 29.3674L14 25.3674V22.3674L11 17.3674V14.3674L12 7.86743L17 5.86743L20.5 6.86743L22.5 10.3674V16.8674L20 22.3674L20.5 25.3674L24 26.8674Z" fill="#E3E3E3"/>
<path d="M17 34.8674C7.6 34.8674 0 27.2674 0 17.8674C0 8.46743 7.6 0.867432 17 0.867432C26.4 0.867432 34 8.46743 34 17.8674C34 27.2674 26.3 34.8674 17 34.8674ZM17 2.86743C8.7 2.86743 2 9.56743 2 17.8674C2 26.1674 8.7 32.8674 17 32.8674C25.3 32.8674 32 26.1674 32 17.8674C32 9.56743 25.2 2.86743 17 2.86743Z" fill="#333333"/>
<path d="M7.20002 30.1674L5.40002 29.3674C5.90002 28.1674 7.50002 27.4674 9.20002 26.6674C10.9 25.8674 13 24.9674 13 23.8674V22.3674C12.4 21.8674 11.4 20.7674 11.2 19.1674C10.7 18.6674 9.90002 17.7674 9.90002 16.5674C9.90002 15.8674 10.2 15.2674 10.4 14.8674C10.2 14.0674 10 12.5674 10 11.3674C10 7.46743 12.7 4.86743 17 4.86743C18.2 4.86743 19.7 5.16743 20.5 6.06743C22.4 6.46743 24 8.66743 24 11.3674C24 13.0674 23.7 14.4674 23.5 15.1674C23.7 15.4674 23.9 15.9674 23.9 16.5674C23.9 17.8674 23.2 18.7674 22.6 19.1674C22.4 20.7674 21.5 21.7674 20.9 22.2674V23.8674C20.9 24.7674 22.7 25.4674 24.3 26.0674C26.2 26.7674 28.2 27.5674 28.9 29.1674L27 29.8674C26.7 29.0674 25.1 28.4674 23.6 27.9674C21.4 27.1674 18.9 26.2674 18.9 23.9674V21.3674L19.4 21.0674C19.4 21.0674 20.6 20.2674 20.6 18.6674V17.9674L21.2 17.6674C21.3 17.6674 21.8 17.3674 21.8 16.5674C21.8 16.3674 21.6 16.0674 21.5 15.9674L21.1 15.5674L21.3 15.0674C21.3 15.0674 21.8 13.4674 21.8 11.4674C21.8 9.56743 20.7 8.16743 19.8 8.16743H19.2L18.9 7.66743C18.9 7.26743 18.2 6.86743 17 6.86743C13.9 6.86743 12 8.56743 12 11.3674C12 12.6674 12.5 14.8674 12.5 14.8674L12.6 15.3674L12.2 15.8674C12.1 15.8674 11.9 16.1674 11.9 16.5674C11.9 17.0674 12.5 17.6674 12.8 17.8674L13.2 18.1674V18.6674C13.2 20.1674 14.5 20.9674 14.5 21.0674L15 21.3674V23.9674C15 26.3674 12.4 27.5674 10 28.5674C8.90002 28.9674 7.40002 29.6674 7.20002 30.1674Z" fill="#333333"/>
</svg>
