<?xml version="1.0" encoding="UTF-8" standalone="no"?>
<svg width="50px" height="50px" viewBox="0 0 50 50" version="1.1" xmlns="http://www.w3.org/2000/svg" xmlns:xlink="http://www.w3.org/1999/xlink">
    <!-- Generator: Sketch 39.1 (31720) - http://www.bohemiancoding.com/sketch -->
    <title>icon-linkedin-active</title>
    <desc>Created with Sketch.</desc>
    <defs></defs>
    <g id="Page-1" stroke="none" stroke-width="1" fill="none" fill-rule="evenodd">
        <g id="icon-linkedin-active" fill="#0077B5">
            <path d="M25,50 C38.8071187,50 50,38.8071187 50,25 C50,11.1928813 38.8071187,0 25,0 C11.1928813,0 0,11.1928813 0,25 C0,38.8071187 11.1928813,50 25,50 Z M23.6928575,19.154286 L27.9508541,19.154286 L27.9508541,21.3367496 L28.0116277,21.3367496 C28.6039777,20.274366 30.0540813,19.154286 32.215005,19.154286 C36.7091723,19.154286 37.5400009,21.9521782 37.5400009,25.5908998 L37.5400009,33.0014294 L33.1019914,33.0014294 L33.1019914,26.4317291 C33.1019914,24.8646941 33.0696814,22.8491654 30.7933649,22.8491654 C28.4816612,22.8491654 28.1293284,24.5554412 28.1293284,26.3178749 L28.1293284,33.0014294 L23.6928575,33.0014294 L23.6928575,19.154286 Z M16,19.154286 L20.6157145,19.154286 L20.6157145,33.0014294 L16,33.0014294 L16,19.154286 Z M20.6157145,15.3078572 C20.6157145,16.5825637 19.5825637,17.6157145 18.3078572,17.6157145 C17.0331508,17.6157145 16,16.5825637 16,15.3078572 C16,14.0331508 17.0331508,13 18.3078572,13 C19.5825637,13 20.6157145,14.0331508 20.6157145,15.3078572 Z" id="Combined-Shape"></path>
        </g>
    </g>
</svg>