<svg width="25" height="28" viewBox="0 0 25 28" fill="none" xmlns="http://www.w3.org/2000/svg">
<g clip-path="url(#clip0)">
<path d="M12.6494 13.4092C12.3919 13.4092 12.1402 13.4851 11.9261 13.6274C11.7119 13.7697 11.545 13.972 11.4462 14.2086C11.3475 14.4453 11.3214 14.7058 11.3712 14.9573C11.4211 15.2087 11.5447 15.4398 11.7264 15.6214C11.9081 15.803 12.1398 15.9269 12.3922 15.9775C12.6445 16.0281 12.9063 16.0031 13.1445 15.9057C13.3826 15.8083 13.5865 15.6429 13.7302 15.4302C13.874 15.2176 13.9512 14.9674 13.9522 14.7111C13.9529 14.5403 13.9196 14.3712 13.8545 14.2132C13.7893 14.0553 13.6934 13.9118 13.5724 13.7908C13.4513 13.6698 13.3075 13.5739 13.1491 13.5084C12.9907 13.4429 12.8209 13.4092 12.6494 13.4092Z" fill="#A3B9C6"/>
<path d="M14.3973 3.35743C13.3696 1.81532 11.1865 1.33364 10.5376 1.57386C9.92472 1.81202 9.37231 2.18211 8.9199 2.65764C8.4675 3.13317 8.12629 3.70237 7.92069 4.32451C7.75398 4.40251 7.59144 4.48549 7.43307 4.57344L7.48933 4.54108C5.9502 3.0724 3.41206 3.3512 2.79566 3.89262C2.25699 4.38277 1.84731 4.99696 1.60252 5.68136C1.35772 6.36576 1.28529 7.09948 1.39156 7.81822C1.5266 8.73302 1.98716 9.56913 2.68938 10.1743C-0.0688058 17.4966 4.08598 26.9085 13.6084 27.5645H13.6784C13.9012 27.5641 14.1176 27.4898 14.2931 27.3531C14.4687 27.2165 14.5933 27.0254 14.6474 26.8102C14.8149 26.1456 15.0075 25.461 15.1412 24.993C20.3563 23.9475 23.9434 19.6112 23.9434 14.2356C23.9392 11.5808 22.9704 9.01709 21.2159 7.01772C19.4613 5.01836 17.0395 3.71827 14.3973 3.35743ZM3.9647 5.54053C4.67738 5.3837 5.27253 5.43847 5.7364 5.70358L5.76515 5.721L5.78516 5.70482C4.93471 6.42788 4.20797 7.28374 3.63337 8.23891C3.11449 7.39629 3.33204 6.23255 3.9647 5.54053ZM14.5086 23.09C13.5546 22.5846 13.1332 21.8453 12.982 21.1321L12.9895 21.1222C14.2185 19.3523 17.1155 19.8987 17.9645 16.4959C17.9961 16.3689 18.0024 16.2371 17.9829 16.1077C17.9634 15.9784 17.9185 15.8542 17.8507 15.7421C17.783 15.6301 17.6937 15.5324 17.5881 15.4547C17.4824 15.377 17.3624 15.3207 17.2349 15.2892C17.1074 15.2576 16.9749 15.2514 16.845 15.2708C16.7151 15.2902 16.5903 15.335 16.4777 15.4024C16.3651 15.4698 16.267 15.5587 16.189 15.6639C16.1109 15.769 16.0544 15.8885 16.0227 16.0154C15.6276 17.5974 14.5999 17.6048 13.1207 18.4263C13.0572 18.2249 12.9311 18.0488 12.7605 17.9234C12.5899 17.7981 12.3837 17.7299 12.1717 17.7288C11.9596 17.7277 11.7527 17.7937 11.5808 17.9173C11.4089 18.0409 11.2809 18.2156 11.2153 18.4163C10.3488 21.0624 11.2403 23.3377 13.1733 24.6084C13.0995 24.8661 13.0145 25.1723 12.9232 25.4983C9.87993 25.0901 7.64687 23.6314 6.16025 21.6997C7.01374 21.8071 7.87741 21.8071 8.73089 21.6997C8.98803 21.656 9.21783 21.514 9.37129 21.304C9.52476 21.094 9.58974 20.8327 9.55239 20.5757C9.51505 20.3187 9.37832 20.0863 9.17137 19.9283C8.96442 19.7702 8.70361 19.6988 8.44457 19.7294C7.37055 19.8925 5.22877 19.8215 4.61236 18.8968C2.98696 14.5405 4.02347 9.14874 7.86318 6.65448C8.94345 10.3884 11.6216 8.30363 10.3951 7.08264C9.1685 5.86165 9.7524 4.1652 11.0315 3.52794C12.7682 3.79305 13.282 4.91198 13.0907 6.70053C13.0721 6.8327 13.0804 6.96724 13.115 7.09617C13.1497 7.2251 13.21 7.34577 13.2924 7.45103C13.3748 7.55629 13.4777 7.64398 13.5948 7.70888C13.712 7.77379 13.841 7.81459 13.9743 7.82886C14.1076 7.84313 14.2424 7.83058 14.3708 7.79195C14.4991 7.75333 14.6183 7.68941 14.7214 7.60401C14.8244 7.51861 14.9091 7.41346 14.9705 7.29482C15.0319 7.17617 15.0687 7.04645 15.0787 6.91337C15.1316 6.45138 15.1399 5.98543 15.1037 5.52186C17.0548 6.00998 18.7867 7.13175 20.0253 8.70972C21.264 10.2877 21.9388 12.2317 21.9429 14.2343C21.9429 18.8881 18.7884 22.3295 14.5036 23.0862L14.5086 23.09Z" fill="#A3B9C6"/>
</g>
<defs>
<clipPath id="clip0">
<rect width="25" height="27" fill="white" transform="translate(0 0.895508)"/>
</clipPath>
</defs>
</svg>
