<svg width="787" height="446" viewBox="0 0 787 446" fill="none" xmlns="http://www.w3.org/2000/svg">
<path d="M366.183 369.854C423.21 341.508 446.461 272.299 418.115 215.272C389.769 158.244 320.56 134.993 263.533 163.339C206.505 191.685 183.254 260.894 211.6 317.922C239.946 374.949 309.155 398.2 366.183 369.854Z" stroke="#AAAAAA" stroke-width="3" stroke-linecap="round" stroke-linejoin="round"/>
<path d="M586.614 286.512C597.607 223.784 555.667 164.021 492.939 153.028C430.211 142.035 370.448 183.975 359.455 246.703C348.463 309.431 390.402 369.193 453.13 380.186C515.858 391.179 575.621 349.24 586.614 286.512Z" stroke="#AAAAAA" stroke-width="3" stroke-linecap="round" stroke-linejoin="round"/>
<path d="M386.9 217.9C386.98 218.092 387.122 218.253 387.303 218.356C387.484 218.459 387.694 218.499 387.9 218.47C388.092 218.467 388.277 218.4 388.427 218.281C388.577 218.162 388.684 217.996 388.73 217.81C388.784 217.557 388.767 217.294 388.68 217.05C388.286 215.803 388.351 214.457 388.863 213.254C389.374 212.051 390.299 211.071 391.47 210.49C391.593 210.433 391.703 210.353 391.794 210.252C391.885 210.152 391.955 210.034 391.999 209.906C392.043 209.778 392.06 209.642 392.05 209.507C392.04 209.372 392.002 209.24 391.94 209.12C391.874 209.005 391.785 208.904 391.68 208.824C391.574 208.743 391.454 208.684 391.325 208.651C391.197 208.617 391.063 208.61 390.932 208.628C390.8 208.647 390.674 208.692 390.56 208.76C386.63 210.91 385.67 215.2 386.9 217.9ZM396.61 205.72C398.525 206.199 400.261 207.221 401.609 208.664C402.958 210.106 403.861 211.907 404.21 213.85C404.91 217.76 402.91 220.47 401.32 223.11C399.59 225.98 399.23 227.11 398.95 228.89C398.927 229.139 398.812 229.371 398.627 229.54C398.442 229.708 398.2 229.801 397.95 229.8H390.55C390.332 229.811 390.117 229.742 389.945 229.605C389.774 229.469 389.659 229.275 389.62 229.06C389.229 226.918 388.361 224.891 387.08 223.13C386.08 221.63 383.91 218.53 384.01 215.35C384.047 213.828 384.424 212.335 385.115 210.978C385.806 209.622 386.792 208.439 388.001 207.514C389.211 206.59 390.612 205.949 392.102 205.639C393.592 205.328 395.132 205.356 396.61 205.72Z" fill="#8F8F8F"/>
<path d="M392.49 236.32C392.301 236.243 392.137 236.115 392.015 235.951C391.894 235.787 391.819 235.593 391.8 235.39H390.42C390.02 235.39 389.78 235.18 389.79 234.86C389.8 234.54 390.03 234.37 390.42 234.37H398.05C398.124 234.355 398.2 234.357 398.274 234.375C398.347 234.393 398.415 234.428 398.474 234.475C398.532 234.523 398.579 234.583 398.611 234.652C398.644 234.72 398.66 234.794 398.66 234.87C398.66 234.945 398.644 235.02 398.611 235.088C398.579 235.157 398.532 235.217 398.474 235.265C398.415 235.312 398.347 235.347 398.274 235.365C398.2 235.383 398.124 235.385 398.05 235.37C397.71 235.37 397.5 235.37 396.55 235.37C396.532 235.572 396.459 235.765 396.339 235.929C396.219 236.093 396.057 236.221 395.87 236.3L392.49 236.32Z" fill="#8F8F8F"/>
<path d="M390.36 231.73C390.237 231.743 390.113 231.711 390.011 231.639C389.91 231.567 389.839 231.461 389.81 231.34C389.71 230.99 389.99 230.71 390.37 230.71H398C398.074 230.695 398.15 230.697 398.224 230.715C398.297 230.733 398.365 230.768 398.424 230.815C398.482 230.863 398.529 230.923 398.561 230.992C398.594 231.06 398.611 231.134 398.611 231.21C398.611 231.285 398.594 231.36 398.561 231.428C398.529 231.496 398.482 231.557 398.424 231.604C398.365 231.652 398.297 231.687 398.224 231.705C398.15 231.723 398.074 231.725 398 231.71C396 231.74 392.49 231.73 390.36 231.73Z" fill="#8F8F8F"/>
<path d="M390.43 233.56C390.04 233.56 389.79 233.36 389.79 233.05C389.79 232.74 390.05 232.53 390.44 232.53H398.13C398.255 232.552 398.368 232.619 398.448 232.718C398.527 232.818 398.567 232.943 398.56 233.07C398.555 233.198 398.499 233.319 398.406 233.407C398.313 233.495 398.188 233.543 398.06 233.54L390.43 233.56Z" fill="#8F8F8F"/>
<path d="M507.789 152.989C517.993 90.128 475.306 30.8971 412.444 20.6933C349.583 10.4895 290.352 53.1767 280.149 116.038C269.945 178.899 312.632 238.13 375.493 248.334C438.354 258.538 497.585 215.85 507.789 152.989Z" stroke="#AAAAAA" stroke-width="3" stroke-linecap="round" stroke-linejoin="round"/>
<path d="M270.718 251.8V258.792C270.718 260.696 269.502 261.88 267.598 261.88C265.694 261.88 264.478 260.696 264.478 258.792V251.8H263.118V258.792C263.118 261.496 264.91 263.144 267.598 263.144C270.286 263.144 272.078 261.496 272.078 258.792V251.8H270.718ZM279.413 257.576H280.693C280.453 255.752 279.317 254.856 277.397 254.856C275.781 254.856 274.341 255.496 274.341 257.16C274.341 258.888 275.845 259.112 277.445 259.512C278.885 259.864 279.509 259.96 279.509 260.792C279.509 261.736 278.677 262.024 277.653 262.024C276.197 262.024 275.429 261.32 275.301 260.152H274.053C274.149 262.04 275.493 263.144 277.637 263.144C279.477 263.144 280.773 262.376 280.773 260.728C280.773 259 279.349 258.792 277.701 258.376C276.357 258.04 275.621 257.912 275.621 257.08C275.621 256.44 276.293 255.976 277.349 255.976C278.597 255.976 279.253 256.472 279.413 257.576ZM286.022 263.144C287.798 263.144 289.238 262.232 289.718 260.44H288.262C287.878 261.592 286.918 262.024 286.022 262.024C284.63 262.024 283.606 260.968 283.51 259.352V259.288H289.782V259C289.782 256.6 288.278 254.856 286.022 254.856C283.798 254.856 282.134 256.6 282.134 259.032C282.134 261.416 283.654 263.144 286.022 263.144ZM283.542 258.152C283.782 256.84 284.726 255.976 286.022 255.976C287.398 255.976 288.422 256.936 288.454 258.152H283.542ZM293.18 257.064V255H291.868V263H293.18V259.56C293.18 257.144 294.396 256.152 296.844 256.392V254.904C295.132 254.904 293.82 255.512 293.18 257.064ZM244.639 272.968V271.8H236.831V283H244.639V281.832H238.191V277.896H244.239V276.728H238.191V272.968H244.639ZM250.145 278.968L253.201 275H251.569L249.313 278.152L247.057 275H245.425L248.481 278.968L245.361 283H246.993L249.313 279.848L251.633 283H253.265L250.145 278.968ZM254.704 286.2H256.016L256 281.656H256.016C256.432 282.584 257.456 283.144 258.688 283.144C261.024 283.144 262.56 281.416 262.56 279.016C262.56 276.6 261.024 274.856 258.688 274.856C257.488 274.856 256.48 275.48 256.016 276.504H256L256.016 275H254.704V286.2ZM258.64 282.024C256.992 282.024 255.936 280.776 255.92 279.064V278.936C255.92 277.224 256.976 275.976 258.64 275.976C260.256 275.976 261.28 277.256 261.28 279.016C261.28 280.76 260.256 282.024 258.64 282.024ZM267.889 283.144C269.665 283.144 271.105 282.232 271.585 280.44H270.129C269.745 281.592 268.785 282.024 267.889 282.024C266.497 282.024 265.473 280.968 265.377 279.352V279.288H271.649V279C271.649 276.6 270.145 274.856 267.889 274.856C265.665 274.856 264.001 276.6 264.001 279.032C264.001 281.416 265.521 283.144 267.889 283.144ZM265.409 278.152C265.649 276.84 266.593 275.976 267.889 275.976C269.265 275.976 270.289 276.936 270.321 278.152H265.409ZM275.047 277.064V275H273.735V283H275.047V279.56C275.047 277.144 276.263 276.152 278.711 276.392V274.904C276.999 274.904 275.687 275.512 275.047 277.064ZM280.229 273.448H281.893V271.8H280.229V273.448ZM280.405 283H281.717V275H280.405V283ZM287.624 283.144C289.4 283.144 290.84 282.232 291.32 280.44H289.864C289.48 281.592 288.52 282.024 287.624 282.024C286.232 282.024 285.208 280.968 285.112 279.352V279.288H291.384V279C291.384 276.6 289.88 274.856 287.624 274.856C285.4 274.856 283.736 276.6 283.736 279.032C283.736 281.416 285.256 283.144 287.624 283.144ZM285.144 278.152C285.384 276.84 286.328 275.976 287.624 275.976C289 275.976 290.024 276.936 290.056 278.152H285.144ZM297.469 274.856C296.237 274.856 295.293 275.432 294.781 276.568V275H293.469V283H294.781V278.776C294.781 277.16 295.757 276.008 297.341 276.008C298.509 276.008 299.197 276.888 299.197 278.296V283H300.509V278.296C300.509 276.216 299.485 274.856 297.469 274.856ZM310.085 280.04H308.773C308.581 281.192 307.829 282.024 306.405 282.024C304.757 282.024 303.797 280.76 303.797 279C303.797 277.24 304.757 275.976 306.405 275.976C307.749 275.976 308.469 276.728 308.693 277.768H310.037C309.765 276.072 308.469 274.856 306.405 274.856C304.005 274.856 302.517 276.6 302.517 279C302.517 281.4 304.005 283.144 306.405 283.144C308.565 283.144 309.877 281.848 310.085 280.04ZM315.217 283.144C316.993 283.144 318.433 282.232 318.913 280.44H317.457C317.073 281.592 316.113 282.024 315.217 282.024C313.825 282.024 312.801 280.968 312.705 279.352V279.288H318.977V279C318.977 276.6 317.473 274.856 315.217 274.856C312.993 274.856 311.329 276.6 311.329 279.032C311.329 281.416 312.849 283.144 315.217 283.144ZM312.737 278.152C312.977 276.84 313.921 275.976 315.217 275.976C316.593 275.976 317.617 276.936 317.649 278.152H312.737ZM320.031 285.096H321.023L322.255 281.352H320.607L320.031 285.096ZM254.814 303L251.758 297.8C253.294 297.48 254.334 296.296 254.334 294.76C254.334 293.048 252.878 291.8 250.862 291.8H245.534V303H246.894V297.896H250.414L253.198 303H254.814ZM246.894 292.968H250.862C252.062 292.968 252.942 293.72 252.942 294.76C252.942 295.896 252.062 296.728 250.862 296.728H246.894V292.968ZM259.749 303.144C261.525 303.144 262.965 302.232 263.445 300.44H261.989C261.605 301.592 260.645 302.024 259.749 302.024C258.357 302.024 257.333 300.968 257.237 299.352V299.288H263.509V299C263.509 296.6 262.005 294.856 259.749 294.856C257.525 294.856 255.861 296.6 255.861 299.032C255.861 301.416 257.381 303.144 259.749 303.144ZM257.269 298.152C257.509 296.84 258.453 295.976 259.749 295.976C261.125 295.976 262.149 296.936 262.181 298.152H257.269ZM270.202 297.576H271.482C271.242 295.752 270.106 294.856 268.186 294.856C266.57 294.856 265.13 295.496 265.13 297.16C265.13 298.888 266.634 299.112 268.234 299.512C269.674 299.864 270.298 299.96 270.298 300.792C270.298 301.736 269.466 302.024 268.442 302.024C266.986 302.024 266.218 301.32 266.09 300.152H264.842C264.938 302.04 266.282 303.144 268.426 303.144C270.266 303.144 271.562 302.376 271.562 300.728C271.562 299 270.138 298.792 268.49 298.376C267.146 298.04 266.41 297.912 266.41 297.08C266.41 296.44 267.082 295.976 268.138 295.976C269.386 295.976 270.042 296.472 270.202 297.576ZM276.811 303.144C278.587 303.144 280.027 302.232 280.507 300.44H279.051C278.667 301.592 277.707 302.024 276.811 302.024C275.419 302.024 274.395 300.968 274.299 299.352V299.288H280.571V299C280.571 296.6 279.067 294.856 276.811 294.856C274.587 294.856 272.923 296.6 272.923 299.032C272.923 301.416 274.443 303.144 276.811 303.144ZM274.331 298.152C274.571 296.84 275.515 295.976 276.811 295.976C278.187 295.976 279.211 296.936 279.243 298.152H274.331ZM285.585 294.856C283.713 294.856 282.337 295.976 282.289 297.528H283.697C283.761 296.632 284.529 295.976 285.601 295.976C286.833 295.976 287.569 296.648 287.569 297.784V298.216H286.465C283.249 298.216 281.969 299.224 281.969 300.84C281.969 302.184 283.041 303.144 284.513 303.144C286.177 303.144 287.121 302.36 287.537 301.736H287.569V303H288.881V297.784C288.881 295.96 287.649 294.856 285.585 294.856ZM284.833 302.088C283.953 302.088 283.313 301.56 283.313 300.824C283.313 299.832 284.065 299.176 286.465 299.176H287.569V299.912C287.553 301.016 286.417 302.088 284.833 302.088ZM292.828 297.064V295H291.516V303H292.828V299.56C292.828 297.144 294.044 296.152 296.492 296.392V294.904C294.78 294.904 293.468 295.512 292.828 297.064ZM304.694 300.04H303.382C303.19 301.192 302.438 302.024 301.014 302.024C299.366 302.024 298.406 300.76 298.406 299C298.406 297.24 299.366 295.976 301.014 295.976C302.358 295.976 303.078 296.728 303.302 297.768H304.646C304.374 296.072 303.078 294.856 301.014 294.856C298.614 294.856 297.126 296.6 297.126 299C297.126 301.4 298.614 303.144 301.014 303.144C303.174 303.144 304.486 301.848 304.694 300.04ZM310.579 294.856C309.347 294.856 308.403 295.432 307.891 296.568V291.8H306.579V303H307.891V298.776C307.891 297.16 308.867 296.008 310.451 296.008C311.619 296.008 312.307 296.888 312.307 298.296V303H313.619V298.296C313.619 296.216 312.595 294.856 310.579 294.856Z" fill="black"/>
<path d="M450.569 188.187C485.904 151.919 563.314 135.89 622.95 143.128" stroke="#5E5E5E" stroke-linecap="round" stroke-linejoin="round"/>
<path fill-rule="evenodd" clip-rule="evenodd" d="M625.549 141.078C626.042 141.201 626.487 141.469 626.828 141.845C627.169 142.222 627.391 142.691 627.465 143.194C627.54 143.697 627.463 144.21 627.246 144.669C627.029 145.129 626.68 145.513 626.244 145.774C625.808 146.036 625.305 146.162 624.797 146.137C624.29 146.112 623.801 145.937 623.393 145.635C622.985 145.332 622.675 144.916 622.504 144.437C622.332 143.959 622.306 143.441 622.429 142.948C622.511 142.62 622.657 142.311 622.858 142.04C623.059 141.768 623.312 141.539 623.602 141.366C623.892 141.192 624.213 141.077 624.547 141.028C624.881 140.978 625.222 140.995 625.549 141.078Z" fill="#5E5E5E"/>
<path fill-rule="evenodd" clip-rule="evenodd" d="M451.19 185.698C451.683 185.82 452.13 186.087 452.472 186.463C452.814 186.84 453.037 187.31 453.112 187.813C453.187 188.317 453.111 188.831 452.893 189.291C452.675 189.751 452.326 190.136 451.889 190.397C451.452 190.659 450.948 190.784 450.44 190.758C449.931 190.733 449.442 190.556 449.034 190.252C448.626 189.948 448.317 189.53 448.147 189.05C447.978 188.57 447.954 188.051 448.079 187.558C448.161 187.231 448.307 186.924 448.507 186.654C448.708 186.383 448.96 186.155 449.249 185.983C449.538 185.81 449.858 185.696 450.191 185.647C450.524 185.598 450.863 185.615 451.19 185.698Z" fill="#5E5E5E"/>
<path d="M340.923 190.187C305.589 153.919 228.179 137.89 168.543 145.128" stroke="#5E5E5E" stroke-linecap="round" stroke-linejoin="round"/>
<path fill-rule="evenodd" clip-rule="evenodd" d="M165.943 143.078C165.451 143.201 165.006 143.469 164.665 143.845C164.324 144.222 164.102 144.691 164.028 145.194C163.953 145.697 164.03 146.21 164.247 146.669C164.464 147.129 164.813 147.513 165.249 147.774C165.685 148.036 166.188 148.162 166.696 148.137C167.203 148.112 167.692 147.937 168.1 147.635C168.508 147.332 168.818 146.916 168.989 146.437C169.161 145.959 169.187 145.441 169.063 144.948C168.982 144.62 168.836 144.311 168.635 144.04C168.434 143.768 168.181 143.539 167.891 143.366C167.601 143.192 167.28 143.077 166.946 143.028C166.612 142.978 166.271 142.995 165.943 143.078Z" fill="#5E5E5E"/>
<path fill-rule="evenodd" clip-rule="evenodd" d="M340.303 187.698C339.81 187.82 339.363 188.087 339.021 188.463C338.679 188.84 338.456 189.31 338.381 189.813C338.306 190.317 338.382 190.831 338.6 191.291C338.818 191.751 339.167 192.136 339.604 192.397C340.041 192.659 340.545 192.784 341.053 192.758C341.562 192.733 342.051 192.556 342.459 192.252C342.867 191.948 343.176 191.53 343.345 191.05C343.515 190.57 343.539 190.051 343.413 189.558C343.332 189.231 343.186 188.924 342.986 188.654C342.785 188.383 342.533 188.155 342.244 187.983C341.955 187.81 341.635 187.696 341.302 187.647C340.969 187.598 340.63 187.615 340.303 187.698Z" fill="#5E5E5E"/>
<path d="M488.063 267.4H486.559C486.207 269 485.039 269.96 483.279 269.96C480.895 269.96 479.327 268.04 479.327 265.384C479.327 262.728 480.895 260.792 483.279 260.792C485.103 260.792 486.303 261.816 486.623 263.512H488.095C487.647 261.08 485.887 259.608 483.279 259.608C480.063 259.608 477.903 262.04 477.903 265.384C477.903 268.728 480.063 271.144 483.279 271.144C485.871 271.144 487.615 269.736 488.063 267.4ZM493.665 262.856C491.265 262.856 489.697 264.6 489.697 267C489.697 269.4 491.265 271.144 493.665 271.144C496.065 271.144 497.633 269.4 497.633 267C497.633 264.6 496.065 262.856 493.665 262.856ZM493.665 263.976C495.313 263.976 496.353 265.24 496.353 267C496.353 268.76 495.313 270.024 493.665 270.024C492.017 270.024 490.977 268.76 490.977 267C490.977 265.24 492.017 263.976 493.665 263.976ZM502.944 271.144C504.144 271.144 505.312 270.52 505.776 269.496H505.792V271H507.104V259.8H505.792V264.344H505.76C505.344 263.416 504.176 262.856 502.944 262.856C500.608 262.856 499.072 264.584 499.072 266.984C499.072 269.4 500.608 271.144 502.944 271.144ZM502.992 263.976C504.64 263.976 505.696 265.224 505.712 266.936V267.064C505.712 268.776 504.656 270.024 502.992 270.024C501.376 270.024 500.352 268.744 500.352 266.984C500.352 265.24 501.376 263.976 502.992 263.976ZM509.503 261.448H511.167V259.8H509.503V261.448ZM509.679 271H510.991V263H509.679V271ZM517.649 262.856C516.417 262.856 515.473 263.432 514.961 264.568V263H513.649V271H514.961V266.776C514.961 265.16 515.937 264.008 517.521 264.008C518.689 264.008 519.377 264.888 519.377 266.296V271H520.689V266.296C520.689 264.216 519.665 262.856 517.649 262.856ZM529.161 263V264.088H529.145C528.681 263.48 527.849 262.856 526.473 262.856C524.233 262.856 522.617 264.488 522.617 266.792C522.617 269.08 524.217 270.84 526.521 270.84C527.817 270.84 528.729 270.28 529.145 269.672H529.161V271.128C529.161 272.44 528.105 273.24 526.681 273.24C525.321 273.24 524.345 272.504 524.169 271.432H522.777C522.969 273.176 524.489 274.36 526.617 274.36C528.889 274.36 530.473 273 530.473 271.128V263H529.161ZM526.569 269.72C524.985 269.72 523.897 268.44 523.897 266.776C523.897 265.128 524.985 263.976 526.569 263.976C528.137 263.976 529.257 265.112 529.257 266.664V266.792C529.241 268.488 528.121 269.72 526.569 269.72ZM532.398 273.096H533.39L534.622 269.352H532.974L532.398 273.096ZM451.548 280.968V279.8H444.78V280.968H447.484V289.832H444.78V291H451.548V289.832H448.844V280.968H451.548ZM462.988 282.856C461.82 282.856 460.796 283.336 460.284 284.488C459.804 283.416 458.828 282.856 457.548 282.856C456.476 282.856 455.644 283.32 455.18 284.312V283H453.868V291H455.18V286.616C455.18 285 455.836 283.976 457.42 283.976C458.556 283.976 459.308 284.744 459.308 286.296V291H460.62V286.616C460.62 285 461.276 283.976 462.86 283.976C463.996 283.976 464.716 284.744 464.716 286.296V291H466.028V286.216C466.028 284.024 464.828 282.856 462.988 282.856ZM468.665 294.2H469.977L469.961 289.656H469.977C470.393 290.584 471.417 291.144 472.649 291.144C474.985 291.144 476.521 289.416 476.521 287.016C476.521 284.6 474.985 282.856 472.649 282.856C471.449 282.856 470.441 283.48 469.977 284.504H469.961L469.977 283H468.665V294.2ZM472.601 290.024C470.953 290.024 469.897 288.776 469.881 287.064V286.936C469.881 285.224 470.937 283.976 472.601 283.976C474.217 283.976 475.241 285.256 475.241 287.016C475.241 288.76 474.217 290.024 472.601 290.024ZM481.626 290.904V289.736C481.146 289.976 480.81 290.024 480.554 290.024C480.09 290.024 479.754 289.592 479.754 288.968V279.8H478.442V289.032C478.442 290.264 479.178 291.144 480.41 291.144C480.73 291.144 481.146 291.08 481.626 290.904ZM486.319 291.144C488.095 291.144 489.535 290.232 490.015 288.44H488.559C488.175 289.592 487.215 290.024 486.319 290.024C484.927 290.024 483.903 288.968 483.807 287.352V287.288H490.079V287C490.079 284.6 488.575 282.856 486.319 282.856C484.095 282.856 482.431 284.6 482.431 287.032C482.431 289.416 483.951 291.144 486.319 291.144ZM483.839 286.152C484.079 284.84 485.023 283.976 486.319 283.976C487.695 283.976 488.719 284.936 488.751 286.152H483.839ZM501.285 282.856C500.117 282.856 499.093 283.336 498.581 284.488C498.101 283.416 497.125 282.856 495.845 282.856C494.773 282.856 493.941 283.32 493.477 284.312V283H492.165V291H493.477V286.616C493.477 285 494.133 283.976 495.717 283.976C496.853 283.976 497.605 284.744 497.605 286.296V291H498.917V286.616C498.917 285 499.573 283.976 501.157 283.976C502.293 283.976 503.013 284.744 503.013 286.296V291H504.325V286.216C504.325 284.024 503.125 282.856 501.285 282.856ZM510.21 291.144C511.986 291.144 513.426 290.232 513.906 288.44H512.45C512.066 289.592 511.106 290.024 510.21 290.024C508.818 290.024 507.794 288.968 507.698 287.352V287.288H513.97V287C513.97 284.6 512.466 282.856 510.21 282.856C507.986 282.856 506.322 284.6 506.322 287.032C506.322 289.416 507.842 291.144 510.21 291.144ZM507.73 286.152C507.97 284.84 508.914 283.976 510.21 283.976C511.586 283.976 512.61 284.936 512.642 286.152H507.73ZM520.055 282.856C518.823 282.856 517.879 283.432 517.367 284.568V283H516.055V291H517.367V286.776C517.367 285.16 518.343 284.008 519.927 284.008C521.095 284.008 521.783 284.888 521.783 286.296V291H523.095V286.296C523.095 284.216 522.071 282.856 520.055 282.856ZM530.547 284.12V283H527.379V280.44H526.067V281.528C526.067 282.648 525.667 283 524.403 283H524.387V284.12H526.067V288.392C526.067 290.088 527.203 291.144 528.995 291.144C529.523 291.144 530.003 291.048 530.547 290.856V289.672C529.875 289.912 529.395 289.976 528.995 289.976C527.939 289.976 527.379 289.432 527.379 288.392V284.12H530.547ZM535.155 282.856C533.283 282.856 531.907 283.976 531.859 285.528H533.267C533.331 284.632 534.099 283.976 535.171 283.976C536.403 283.976 537.139 284.648 537.139 285.784V286.216H536.035C532.819 286.216 531.539 287.224 531.539 288.84C531.539 290.184 532.611 291.144 534.083 291.144C535.747 291.144 536.691 290.36 537.107 289.736H537.139V291H538.451V285.784C538.451 283.96 537.219 282.856 535.155 282.856ZM534.403 290.088C533.523 290.088 532.883 289.56 532.883 288.824C532.883 287.832 533.635 287.176 536.035 287.176H537.139V287.912C537.123 289.016 535.987 290.088 534.403 290.088ZM545.89 284.12V283H542.722V280.44H541.41V281.528C541.41 282.648 541.01 283 539.746 283H539.73V284.12H541.41V288.392C541.41 290.088 542.546 291.144 544.338 291.144C544.866 291.144 545.346 291.048 545.89 290.856V289.672C545.218 289.912 544.738 289.976 544.338 289.976C543.282 289.976 542.722 289.432 542.722 288.392V284.12H545.89ZM547.331 281.448H548.995V279.8H547.331V281.448ZM547.507 291H548.819V283H547.507V291ZM554.805 282.856C552.405 282.856 550.837 284.6 550.837 287C550.837 289.4 552.405 291.144 554.805 291.144C557.205 291.144 558.773 289.4 558.773 287C558.773 284.6 557.205 282.856 554.805 282.856ZM554.805 283.976C556.453 283.976 557.493 285.24 557.493 287C557.493 288.76 556.453 290.024 554.805 290.024C553.157 290.024 552.117 288.76 552.117 287C552.117 285.24 553.157 283.976 554.805 283.976ZM564.852 282.856C563.62 282.856 562.676 283.432 562.164 284.568V283H560.852V291H562.164V286.776C562.164 285.16 563.14 284.008 564.724 284.008C565.892 284.008 566.58 284.888 566.58 286.296V291H567.892V286.296C567.892 284.216 566.868 282.856 564.852 282.856Z" fill="black"/>
<path d="M364.408 75.968V74.8H357.64V75.968H360.344V84.832H357.64V86H364.408V84.832H361.704V75.968H364.408ZM370.727 77.856C369.495 77.856 368.551 78.432 368.039 79.568V78H366.727V86H368.039V81.776C368.039 80.16 369.015 79.008 370.599 79.008C371.767 79.008 372.455 79.888 372.455 81.296V86H373.767V81.296C373.767 79.216 372.743 77.856 370.727 77.856ZM381.218 79.12V78H378.05V75.44H376.738V76.528C376.738 77.648 376.338 78 375.074 78H375.058V79.12H376.738V83.392C376.738 85.088 377.874 86.144 379.666 86.144C380.194 86.144 380.674 86.048 381.218 85.856V84.672C380.546 84.912 380.066 84.976 379.666 84.976C378.61 84.976 378.05 84.432 378.05 83.392V79.12H381.218ZM385.835 86.144C387.611 86.144 389.051 85.232 389.531 83.44H388.075C387.691 84.592 386.731 85.024 385.835 85.024C384.443 85.024 383.419 83.968 383.323 82.352V82.288H389.595V82C389.595 79.6 388.091 77.856 385.835 77.856C383.611 77.856 381.947 79.6 381.947 82.032C381.947 84.416 383.467 86.144 385.835 86.144ZM383.355 81.152C383.595 79.84 384.539 78.976 385.835 78.976C387.211 78.976 388.235 79.936 388.267 81.152H383.355ZM392.992 80.064V78H391.68V86H392.992V82.56C392.992 80.144 394.208 79.152 396.656 79.392V77.904C394.944 77.904 393.632 78.512 392.992 80.064ZM402.103 75.776C402.503 75.776 402.983 75.84 403.655 76.08V74.896C403.111 74.704 402.631 74.608 402.103 74.608C400.311 74.608 399.175 75.664 399.175 77.36V78H397.495V79.12H399.175V86H400.487V79.12H403.655V78H400.487V77.36C400.487 76.32 401.047 75.776 402.103 75.776ZM407.843 77.856C405.971 77.856 404.595 78.976 404.547 80.528H405.955C406.019 79.632 406.787 78.976 407.859 78.976C409.091 78.976 409.827 79.648 409.827 80.784V81.216H408.723C405.507 81.216 404.227 82.224 404.227 83.84C404.227 85.184 405.299 86.144 406.771 86.144C408.435 86.144 409.379 85.36 409.795 84.736H409.827V86H411.139V80.784C411.139 78.96 409.907 77.856 407.843 77.856ZM407.091 85.088C406.211 85.088 405.571 84.56 405.571 83.824C405.571 82.832 406.323 82.176 408.723 82.176H409.827V82.912C409.811 84.016 408.675 85.088 407.091 85.088ZM420.702 83.04H419.39C419.198 84.192 418.446 85.024 417.022 85.024C415.374 85.024 414.414 83.76 414.414 82C414.414 80.24 415.374 78.976 417.022 78.976C418.366 78.976 419.086 79.728 419.31 80.768H420.654C420.382 79.072 419.086 77.856 417.022 77.856C414.622 77.856 413.134 79.6 413.134 82C413.134 84.4 414.622 86.144 417.022 86.144C419.182 86.144 420.494 84.848 420.702 83.04ZM425.835 86.144C427.611 86.144 429.051 85.232 429.531 83.44H428.075C427.691 84.592 426.731 85.024 425.835 85.024C424.443 85.024 423.419 83.968 423.323 82.352V82.288H429.595V82C429.595 79.6 428.091 77.856 425.835 77.856C423.611 77.856 421.947 79.6 421.947 82.032C421.947 84.416 423.467 86.144 425.835 86.144ZM423.355 81.152C423.595 79.84 424.539 78.976 425.835 78.976C427.211 78.976 428.235 79.936 428.267 81.152H423.355ZM372.429 94.8H368.909V106H372.429C375.981 106 378.221 103.648 378.221 100.4C378.221 97.152 375.981 94.8 372.429 94.8ZM372.589 104.832H370.269V95.968H372.589C375.213 95.968 376.797 97.824 376.797 100.4C376.797 102.976 375.213 104.832 372.589 104.832ZM383.702 106.144C385.478 106.144 386.918 105.232 387.398 103.44H385.942C385.558 104.592 384.598 105.024 383.702 105.024C382.31 105.024 381.286 103.968 381.19 102.352V102.288H387.462V102C387.462 99.6 385.958 97.856 383.702 97.856C381.478 97.856 379.814 99.6 379.814 102.032C379.814 104.416 381.334 106.144 383.702 106.144ZM381.222 101.152C381.462 99.84 382.406 98.976 383.702 98.976C385.078 98.976 386.102 99.936 386.134 101.152H381.222ZM394.156 100.576H395.436C395.196 98.752 394.06 97.856 392.14 97.856C390.524 97.856 389.084 98.496 389.084 100.16C389.084 101.888 390.588 102.112 392.188 102.512C393.628 102.864 394.252 102.96 394.252 103.792C394.252 104.736 393.42 105.024 392.396 105.024C390.94 105.024 390.172 104.32 390.044 103.152H388.796C388.892 105.04 390.236 106.144 392.38 106.144C394.22 106.144 395.516 105.376 395.516 103.728C395.516 102 394.092 101.792 392.444 101.376C391.1 101.04 390.364 100.912 390.364 100.08C390.364 99.44 391.036 98.976 392.092 98.976C393.34 98.976 393.996 99.472 394.156 100.576ZM397.276 96.448H398.94V94.8H397.276V96.448ZM397.452 106H398.764V98H397.452V106ZM407.247 98V99.088H407.231C406.767 98.48 405.935 97.856 404.559 97.856C402.319 97.856 400.703 99.488 400.703 101.792C400.703 104.08 402.303 105.84 404.607 105.84C405.903 105.84 406.815 105.28 407.231 104.672H407.247V106.128C407.247 107.44 406.191 108.24 404.766 108.24C403.407 108.24 402.431 107.504 402.255 106.432H400.863C401.055 108.176 402.575 109.36 404.703 109.36C406.975 109.36 408.559 108 408.559 106.128V98H407.247ZM404.655 104.72C403.071 104.72 401.983 103.44 401.983 101.776C401.983 100.128 403.071 98.976 404.655 98.976C406.223 98.976 407.343 100.112 407.343 101.664V101.792C407.327 103.488 406.207 104.72 404.655 104.72ZM415.204 97.856C413.972 97.856 413.028 98.432 412.516 99.568V98H411.204V106H412.516V101.776C412.516 100.16 413.492 99.008 415.076 99.008C416.244 99.008 416.932 99.888 416.932 101.296V106H418.244V101.296C418.244 99.216 417.22 97.856 415.204 97.856Z" fill="black"/>
<path d="M356.025 426.081H350.921V437.281H352.281V432.481H356.025C358.265 432.481 359.705 431.185 359.705 429.249C359.705 427.505 358.265 426.081 356.025 426.081ZM356.025 431.313H352.281V427.249H356.025C357.481 427.249 358.313 428.177 358.313 429.249C358.313 430.353 357.481 431.313 356.025 431.313ZM362.778 431.345V429.281H361.466V437.281H362.778V433.841C362.778 431.425 363.994 430.433 366.442 430.673V429.185C364.73 429.185 363.418 429.793 362.778 431.345ZM371.044 429.137C368.644 429.137 367.076 430.881 367.076 433.281C367.076 435.681 368.644 437.425 371.044 437.425C373.444 437.425 375.012 435.681 375.012 433.281C375.012 430.881 373.444 429.137 371.044 429.137ZM371.044 430.257C372.692 430.257 373.732 431.521 373.732 433.281C373.732 435.041 372.692 436.305 371.044 436.305C369.396 436.305 368.356 435.041 368.356 433.281C368.356 431.521 369.396 430.257 371.044 430.257ZM381.973 430.401V429.281H378.805V426.721H377.493V427.809C377.493 428.929 377.093 429.281 375.829 429.281H375.813V430.401H377.493V434.673C377.493 436.369 378.629 437.425 380.421 437.425C380.949 437.425 381.429 437.329 381.973 437.137V435.953C381.301 436.193 380.821 436.257 380.421 436.257C379.365 436.257 378.805 435.713 378.805 434.673V430.401H381.973ZM386.669 429.137C384.269 429.137 382.701 430.881 382.701 433.281C382.701 435.681 384.269 437.425 386.669 437.425C389.069 437.425 390.637 435.681 390.637 433.281C390.637 430.881 389.069 429.137 386.669 429.137ZM386.669 430.257C388.317 430.257 389.357 431.521 389.357 433.281C389.357 435.041 388.317 436.305 386.669 436.305C385.021 436.305 383.981 435.041 383.981 433.281C383.981 431.521 385.021 430.257 386.669 430.257ZM397.598 430.401V429.281H394.43V426.721H393.118V427.809C393.118 428.929 392.718 429.281 391.454 429.281H391.438V430.401H393.118V434.673C393.118 436.369 394.254 437.425 396.046 437.425C396.574 437.425 397.054 437.329 397.598 437.137V435.953C396.926 436.193 396.446 436.257 396.046 436.257C394.99 436.257 394.43 435.713 394.43 434.673V430.401H397.598ZM405.671 429.281L402.839 435.985L399.847 429.281H398.311L402.183 437.537L401.863 438.305C401.543 439.073 400.903 439.505 400.183 439.505C399.703 439.505 399.063 439.441 398.183 438.945V440.225C398.791 440.513 399.415 440.673 400.183 440.673C401.415 440.673 402.455 439.953 402.967 438.785L407.127 429.281H405.671ZM408.56 440.481H409.872L409.856 435.937H409.872C410.288 436.865 411.312 437.425 412.544 437.425C414.88 437.425 416.416 435.697 416.416 433.297C416.416 430.881 414.88 429.137 412.544 429.137C411.344 429.137 410.336 429.761 409.872 430.785H409.856L409.872 429.281H408.56V440.481ZM412.496 436.305C410.848 436.305 409.792 435.057 409.776 433.345V433.217C409.776 431.505 410.832 430.257 412.496 430.257C414.112 430.257 415.136 431.537 415.136 433.297C415.136 435.041 414.112 436.305 412.496 436.305ZM418.258 427.729H419.922V426.081H418.258V427.729ZM418.434 437.281H419.746V429.281H418.434V437.281ZM426.404 429.137C425.172 429.137 424.228 429.713 423.716 430.849V429.281H422.404V437.281H423.716V433.057C423.716 431.441 424.692 430.289 426.276 430.289C427.444 430.289 428.132 431.169 428.132 432.577V437.281H429.444V432.577C429.444 430.497 428.42 429.137 426.404 429.137ZM437.915 429.281V430.369H437.899C437.435 429.761 436.603 429.137 435.227 429.137C432.987 429.137 431.371 430.769 431.371 433.073C431.371 435.361 432.971 437.121 435.275 437.121C436.571 437.121 437.483 436.561 437.899 435.953H437.915V437.409C437.915 438.721 436.859 439.521 435.435 439.521C434.075 439.521 433.099 438.785 432.923 437.713H431.531C431.723 439.457 433.243 440.641 435.371 440.641C437.643 440.641 439.227 439.281 439.227 437.409V429.281H437.915ZM435.323 436.001C433.739 436.001 432.651 434.721 432.651 433.057C432.651 431.409 433.739 430.257 435.323 430.257C436.891 430.257 438.011 431.393 438.011 432.945V433.073C437.995 434.769 436.875 436.001 435.323 436.001Z" fill="black"/>
<path d="M38.71 136.8V143.792C38.71 145.696 37.494 146.88 35.59 146.88C33.686 146.88 32.47 145.696 32.47 143.792V136.8H31.11V143.792C31.11 146.496 32.902 148.144 35.59 148.144C38.278 148.144 40.07 146.496 40.07 143.792V136.8H38.71ZM47.4055 142.576H48.6855C48.4455 140.752 47.3095 139.856 45.3895 139.856C43.7735 139.856 42.3335 140.496 42.3335 142.16C42.3335 143.888 43.8375 144.112 45.4375 144.512C46.8775 144.864 47.5015 144.96 47.5015 145.792C47.5015 146.736 46.6695 147.024 45.6455 147.024C44.1895 147.024 43.4215 146.32 43.2935 145.152H42.0455C42.1415 147.04 43.4855 148.144 45.6295 148.144C47.4695 148.144 48.7655 147.376 48.7655 145.728C48.7655 144 47.3415 143.792 45.6935 143.376C44.3495 143.04 43.6135 142.912 43.6135 142.08C43.6135 141.44 44.2855 140.976 45.3415 140.976C46.5895 140.976 47.2455 141.472 47.4055 142.576ZM53.6943 139.856C51.8223 139.856 50.4463 140.976 50.3983 142.528H51.8063C51.8703 141.632 52.6383 140.976 53.7103 140.976C54.9423 140.976 55.6783 141.648 55.6783 142.784V143.216H54.5743C51.3583 143.216 50.0783 144.224 50.0783 145.84C50.0783 147.184 51.1503 148.144 52.6223 148.144C54.2863 148.144 55.2303 147.36 55.6463 146.736H55.6783V148H56.9903V142.784C56.9903 140.96 55.7583 139.856 53.6943 139.856ZM52.9423 147.088C52.0623 147.088 51.4223 146.56 51.4223 145.824C51.4223 144.832 52.1743 144.176 54.5743 144.176H55.6783V144.912C55.6623 146.016 54.5263 147.088 52.9423 147.088ZM63.6096 148.144C65.9456 148.144 67.4816 146.4 67.4816 143.984C67.4816 141.584 65.9456 139.856 63.6096 139.856C62.3776 139.856 61.3536 140.416 60.9376 141.344H60.9216L60.9376 136.8H59.6256V148H60.9376L60.9216 146.496H60.9376C61.4016 147.52 62.4096 148.144 63.6096 148.144ZM63.5616 140.976C65.1776 140.976 66.2016 142.24 66.2016 143.984C66.2016 145.744 65.1776 147.024 63.5616 147.024C61.8976 147.024 60.8416 145.776 60.8416 144.064V143.936C60.8576 142.224 61.9136 140.976 63.5616 140.976ZM69.3231 138.448H70.9871V136.8H69.3231V138.448ZM69.4991 148H70.8111V140H69.4991V148ZM76.4934 147.904V146.736C76.0134 146.976 75.6774 147.024 75.4214 147.024C74.9574 147.024 74.6214 146.592 74.6214 145.968V136.8H73.3094V146.032C73.3094 147.264 74.0454 148.144 75.2774 148.144C75.5974 148.144 76.0134 148.08 76.4934 147.904ZM78.0106 138.448H79.6746V136.8H78.0106V138.448ZM78.1866 148H79.4986V140H78.1866V148ZM87.1169 141.12V140H83.9489V137.44H82.6369V138.528C82.6369 139.648 82.2369 140 80.9729 140H80.9569V141.12H82.6369V145.392C82.6369 147.088 83.7729 148.144 85.5649 148.144C86.0929 148.144 86.5729 148.048 87.1169 147.856V146.672C86.4449 146.912 85.9649 146.976 85.5649 146.976C84.5089 146.976 83.9489 146.432 83.9489 145.392V141.12H87.1169ZM95.19 140L92.358 146.704L89.366 140H87.83L91.702 148.256L91.382 149.024C91.062 149.792 90.422 150.224 89.702 150.224C89.222 150.224 88.582 150.16 87.702 149.664V150.944C88.31 151.232 88.934 151.392 89.702 151.392C90.934 151.392 91.974 150.672 92.486 149.504L96.646 140H95.19ZM110.199 136.8H101.191V137.968H105.015V148H106.375V137.968H110.199V136.8ZM113.53 148.144C115.306 148.144 116.746 147.232 117.226 145.44H115.77C115.386 146.592 114.426 147.024 113.53 147.024C112.138 147.024 111.114 145.968 111.018 144.352V144.288H117.29V144C117.29 141.6 115.786 139.856 113.53 139.856C111.306 139.856 109.642 141.6 109.642 144.032C109.642 146.416 111.162 148.144 113.53 148.144ZM111.05 143.152C111.29 141.84 112.234 140.976 113.53 140.976C114.906 140.976 115.93 141.936 115.962 143.152H111.05ZM123.984 142.576H125.264C125.024 140.752 123.888 139.856 121.968 139.856C120.352 139.856 118.912 140.496 118.912 142.16C118.912 143.888 120.416 144.112 122.016 144.512C123.456 144.864 124.08 144.96 124.08 145.792C124.08 146.736 123.248 147.024 122.224 147.024C120.768 147.024 120 146.32 119.872 145.152H118.624C118.72 147.04 120.064 148.144 122.208 148.144C124.048 148.144 125.344 147.376 125.344 145.728C125.344 144 123.92 143.792 122.272 143.376C120.928 143.04 120.192 142.912 120.192 142.08C120.192 141.44 120.864 140.976 121.92 140.976C123.168 140.976 123.824 141.472 123.984 142.576ZM132.304 141.12V140H129.136V137.44H127.824V138.528C127.824 139.648 127.424 140 126.16 140H126.144V141.12H127.824V145.392C127.824 147.088 128.96 148.144 130.752 148.144C131.28 148.144 131.76 148.048 132.304 147.856V146.672C131.632 146.912 131.152 146.976 130.752 146.976C129.696 146.976 129.136 146.432 129.136 145.392V141.12H132.304ZM133.745 138.448H135.409V136.8H133.745V138.448ZM133.921 148H135.233V140H133.921V148ZM141.891 139.856C140.659 139.856 139.715 140.432 139.203 141.568V140H137.891V148H139.203V143.776C139.203 142.16 140.179 141.008 141.763 141.008C142.931 141.008 143.619 141.888 143.619 143.296V148H144.931V143.296C144.931 141.216 143.907 139.856 141.891 139.856ZM153.403 140V141.088H153.387C152.923 140.48 152.091 139.856 150.715 139.856C148.475 139.856 146.859 141.488 146.859 143.792C146.859 146.08 148.459 147.84 150.763 147.84C152.059 147.84 152.971 147.28 153.387 146.672H153.403V148.128C153.403 149.44 152.347 150.24 150.923 150.24C149.563 150.24 148.587 149.504 148.411 148.432H147.019C147.211 150.176 148.731 151.36 150.859 151.36C153.131 151.36 154.715 150 154.715 148.128V140H153.403ZM150.811 146.72C149.227 146.72 148.139 145.44 148.139 143.776C148.139 142.128 149.227 140.976 150.811 140.976C152.379 140.976 153.499 142.112 153.499 143.664V143.792C153.483 145.488 152.363 146.72 150.811 146.72Z" fill="black"/>
<line x1="393.997" y1="286.904" x2="393.997" y2="408.285" stroke="#5E5E5E"/>
<path fill-rule="evenodd" clip-rule="evenodd" d="M394.625 285.411C395.119 285.533 395.565 285.8 395.907 286.177C396.25 286.553 396.472 287.023 396.547 287.527C396.622 288.03 396.546 288.544 396.328 289.004C396.111 289.464 395.761 289.849 395.325 290.111C394.888 290.372 394.383 290.498 393.875 290.472C393.367 290.446 392.877 290.27 392.469 289.966C392.061 289.661 391.753 289.243 391.583 288.763C391.413 288.283 391.389 287.764 391.515 287.271C391.597 286.944 391.742 286.637 391.943 286.367C392.143 286.097 392.395 285.869 392.684 285.696C392.973 285.523 393.293 285.409 393.626 285.36C393.959 285.311 394.299 285.328 394.625 285.411Z" fill="#5E5E5E"/>
<path fill-rule="evenodd" clip-rule="evenodd" d="M394.625 405.792C395.119 405.915 395.565 406.182 395.907 406.558C396.25 406.935 396.472 407.405 396.547 407.908C396.622 408.411 396.546 408.926 396.328 409.386C396.111 409.846 395.761 410.231 395.325 410.492C394.888 410.753 394.383 410.879 393.875 410.853C393.367 410.827 392.877 410.651 392.469 410.347C392.061 410.043 391.753 409.624 391.583 409.145C391.413 408.665 391.389 408.145 391.515 407.652C391.597 407.326 391.742 407.019 391.943 406.748C392.143 406.478 392.395 406.25 392.684 406.077C392.973 405.905 393.293 405.79 393.626 405.742C393.959 405.693 394.299 405.71 394.625 405.792Z" fill="#5E5E5E"/>
<path d="M642.037 126.94H636.933V138.14H638.293V133.34H642.037C644.277 133.34 645.717 132.044 645.717 130.108C645.717 128.364 644.277 126.94 642.037 126.94ZM642.037 132.172H638.293V128.108H642.037C643.493 128.108 644.325 129.036 644.325 130.108C644.325 131.212 643.493 132.172 642.037 132.172ZM648.79 132.204V130.14H647.478V138.14H648.79V134.7C648.79 132.284 650.006 131.292 652.454 131.532V130.044C650.742 130.044 649.43 130.652 648.79 132.204ZM657.056 129.996C654.656 129.996 653.088 131.74 653.088 134.14C653.088 136.54 654.656 138.284 657.056 138.284C659.456 138.284 661.024 136.54 661.024 134.14C661.024 131.74 659.456 129.996 657.056 129.996ZM657.056 131.116C658.704 131.116 659.744 132.38 659.744 134.14C659.744 135.9 658.704 137.164 657.056 137.164C655.408 137.164 654.368 135.9 654.368 134.14C654.368 132.38 655.408 131.116 657.056 131.116ZM666.335 138.284C667.535 138.284 668.703 137.66 669.167 136.636H669.183V138.14H670.495V126.94H669.183V131.484H669.151C668.735 130.556 667.567 129.996 666.335 129.996C663.999 129.996 662.463 131.724 662.463 134.124C662.463 136.54 663.999 138.284 666.335 138.284ZM666.383 131.116C668.031 131.116 669.087 132.364 669.103 134.076V134.204C669.103 135.916 668.047 137.164 666.383 137.164C664.767 137.164 663.743 135.884 663.743 134.124C663.743 132.38 664.767 131.116 666.383 131.116ZM680.014 130.14H678.702V134.364C678.702 135.98 677.726 137.132 676.142 137.132C674.974 137.132 674.286 136.252 674.286 134.844V130.14H672.974V134.844C672.974 136.924 673.998 138.284 676.014 138.284C677.198 138.284 678.158 137.756 678.702 136.684V138.14H680.014V130.14ZM689.656 135.18H688.344C688.152 136.332 687.4 137.164 685.976 137.164C684.328 137.164 683.368 135.9 683.368 134.14C683.368 132.38 684.328 131.116 685.976 131.116C687.32 131.116 688.04 131.868 688.264 132.908H689.608C689.336 131.212 688.04 129.996 685.976 129.996C683.576 129.996 682.088 131.74 682.088 134.14C682.088 136.54 683.576 138.284 685.976 138.284C688.136 138.284 689.448 136.988 689.656 135.18ZM696.422 131.26V130.14H693.254V127.58H691.942V128.668C691.942 129.788 691.542 130.14 690.278 130.14H690.262V131.26H691.942V135.532C691.942 137.228 693.078 138.284 694.87 138.284C695.398 138.284 695.878 138.188 696.422 137.996V136.812C695.75 137.052 695.27 137.116 694.87 137.116C693.814 137.116 693.254 136.572 693.254 135.532V131.26H696.422ZM697.863 128.588H699.527V126.94H697.863V128.588ZM698.039 138.14H699.351V130.14H698.039V138.14ZM705.337 129.996C702.937 129.996 701.369 131.74 701.369 134.14C701.369 136.54 702.937 138.284 705.337 138.284C707.737 138.284 709.305 136.54 709.305 134.14C709.305 131.74 707.737 129.996 705.337 129.996ZM705.337 131.116C706.985 131.116 708.025 132.38 708.025 134.14C708.025 135.9 706.985 137.164 705.337 137.164C703.689 137.164 702.649 135.9 702.649 134.14C702.649 132.38 703.689 131.116 705.337 131.116ZM715.384 129.996C714.152 129.996 713.208 130.572 712.696 131.708V130.14H711.384V138.14H712.696V133.916C712.696 132.3 713.672 131.148 715.256 131.148C716.424 131.148 717.112 132.028 717.112 133.436V138.14H718.424V133.436C718.424 131.356 717.4 129.996 715.384 129.996ZM720.672 133.148V134.3H725.312V133.148H720.672ZM728.946 132.204V130.14H727.634V138.14H728.946V134.7C728.946 132.284 730.162 131.292 732.61 131.532V130.044C730.898 130.044 729.586 130.652 728.946 132.204ZM737.132 138.284C738.908 138.284 740.348 137.372 740.828 135.58H739.372C738.988 136.732 738.028 137.164 737.132 137.164C735.74 137.164 734.716 136.108 734.62 134.492V134.428H740.892V134.14C740.892 131.74 739.388 129.996 737.132 129.996C734.908 129.996 733.244 131.74 733.244 134.172C733.244 136.556 734.764 138.284 737.132 138.284ZM734.652 133.292C734.892 131.98 735.836 131.116 737.132 131.116C738.508 131.116 739.532 132.076 739.564 133.292H734.652ZM745.906 129.996C744.034 129.996 742.658 131.116 742.61 132.668H744.018C744.082 131.772 744.85 131.116 745.922 131.116C747.154 131.116 747.89 131.788 747.89 132.924V133.356H746.786C743.57 133.356 742.29 134.364 742.29 135.98C742.29 137.324 743.362 138.284 744.834 138.284C746.498 138.284 747.442 137.5 747.858 136.876H747.89V138.14H749.202V132.924C749.202 131.1 747.97 129.996 745.906 129.996ZM745.154 137.228C744.274 137.228 743.634 136.7 743.634 135.964C743.634 134.972 744.386 134.316 746.786 134.316H747.89V135.052C747.874 136.156 746.738 137.228 745.154 137.228ZM755.069 138.284C756.269 138.284 757.437 137.66 757.901 136.636H757.917V138.14H759.229V126.94H757.917V131.484H757.885C757.469 130.556 756.301 129.996 755.069 129.996C752.733 129.996 751.197 131.724 751.197 134.124C751.197 136.54 752.733 138.284 755.069 138.284ZM755.117 131.116C756.765 131.116 757.821 132.364 757.837 134.076V134.204C757.837 135.916 756.781 137.164 755.117 137.164C753.501 137.164 752.477 135.884 752.477 134.124C752.477 132.38 753.501 131.116 755.117 131.116ZM767.949 130.14L765.117 136.844L762.125 130.14H760.589L764.461 138.396L764.141 139.164C763.821 139.932 763.181 140.364 762.461 140.364C761.981 140.364 761.341 140.3 760.461 139.804V141.084C761.069 141.372 761.693 141.532 762.461 141.532C763.693 141.532 764.733 140.812 765.245 139.644L769.405 130.14H767.949ZM637.749 153.932H636.309C636.421 156.588 638.165 158.284 641.093 158.284C643.637 158.284 645.237 157.004 645.237 155.116C645.237 152.7 642.581 152.172 641.173 151.852C638.677 151.276 638.117 150.812 638.117 149.868C638.117 148.604 639.125 147.9 640.773 147.9C642.565 147.9 643.509 148.732 643.653 150.492H645.061C644.869 147.964 643.301 146.748 640.725 146.748C638.245 146.748 636.741 147.868 636.741 149.9C636.741 152.108 638.517 152.54 640.853 153.068C642.677 153.484 643.861 153.852 643.861 155.132C643.861 156.428 642.677 157.132 641.125 157.132C639.125 157.132 637.877 155.964 637.749 153.932ZM650.744 149.996C648.344 149.996 646.776 151.74 646.776 154.14C646.776 156.54 648.344 158.284 650.744 158.284C653.144 158.284 654.712 156.54 654.712 154.14C654.712 151.74 653.144 149.996 650.744 149.996ZM650.744 151.116C652.392 151.116 653.432 152.38 653.432 154.14C653.432 155.9 652.392 157.164 650.744 157.164C649.096 157.164 648.056 155.9 648.056 154.14C648.056 152.38 649.096 151.116 650.744 151.116ZM659.815 158.044V156.876C659.335 157.116 658.999 157.164 658.743 157.164C658.279 157.164 657.943 156.732 657.943 156.108V146.94H656.631V156.172C656.631 157.404 657.367 158.284 658.599 158.284C658.919 158.284 659.335 158.22 659.815 158.044ZM668.139 150.14H666.827V154.364C666.827 155.98 665.851 157.132 664.267 157.132C663.099 157.132 662.411 156.252 662.411 154.844V150.14H661.099V154.844C661.099 156.924 662.123 158.284 664.139 158.284C665.323 158.284 666.283 157.756 666.827 156.684V158.14H668.139V150.14ZM675.813 151.26V150.14H672.645V147.58H671.333V148.668C671.333 149.788 670.933 150.14 669.669 150.14H669.653V151.26H671.333V155.532C671.333 157.228 672.469 158.284 674.261 158.284C674.789 158.284 675.269 158.188 675.813 157.996V156.812C675.141 157.052 674.661 157.116 674.261 157.116C673.205 157.116 672.645 156.572 672.645 155.532V151.26H675.813ZM677.254 148.588H678.918V146.94H677.254V148.588ZM677.43 158.14H678.742V150.14H677.43V158.14ZM684.728 149.996C682.328 149.996 680.76 151.74 680.76 154.14C680.76 156.54 682.328 158.284 684.728 158.284C687.128 158.284 688.696 156.54 688.696 154.14C688.696 151.74 687.128 149.996 684.728 149.996ZM684.728 151.116C686.376 151.116 687.416 152.38 687.416 154.14C687.416 155.9 686.376 157.164 684.728 157.164C683.08 157.164 682.04 155.9 682.04 154.14C682.04 152.38 683.08 151.116 684.728 151.116ZM694.775 149.996C693.543 149.996 692.599 150.572 692.087 151.708V150.14H690.775V158.14H692.087V153.916C692.087 152.3 693.063 151.148 694.647 151.148C695.815 151.148 696.503 152.028 696.503 153.436V158.14H697.815V153.436C697.815 151.356 696.791 149.996 694.775 149.996Z" fill="black"/>
</svg>
