<svg width="24" height="24" viewBox="0 0 24 24" fill="none" xmlns="http://www.w3.org/2000/svg">
<path d="M12.0704 23.8994C11.3386 23.8994 11.0734 23.4427 11.0734 22.8792L10.7452 9.26746C10.7452 8.70401 11.3385 8.24725 12.0704 8.24725C12.8022 8.24725 13.3955 8.70401 13.3955 9.26746L13.0674 22.8792C13.0674 23.4427 12.8023 23.8994 12.0704 23.8994Z" fill="#D5DEE4"/>
<path d="M12.0703 8.52313C11.3385 8.52313 10.7452 9.14218 10.7452 9.90582L10.8411 15.292C11.2361 15.3872 11.6476 15.4375 12.0703 15.4375C12.493 15.4375 12.9046 15.3872 13.2996 15.292L13.3954 9.90588C13.3954 9.14223 12.8021 8.52313 12.0703 8.52313Z" fill="#BCCBD3"/>
<path d="M12.0703 13.6685C15.4229 13.6685 18.1406 10.8325 18.1406 7.33424C18.1406 3.83594 15.4229 1 12.0703 1C8.71777 1 6 3.83594 6 7.33424C6 10.8325 8.71777 13.6685 12.0703 13.6685Z" fill="#FF473E"/>
<path d="M7.72298 5.95322C8.2035 6.28495 9.03112 5.86289 9.57153 5.01053C10.1119 4.15817 10.1605 3.19829 9.67998 2.86657C9.19947 2.53484 8.37185 2.9569 7.83144 3.80926C7.29103 4.66162 7.24247 5.6215 7.72298 5.95322Z" fill="#FD7085"/>
</svg>
