<svg width="906" height="254" viewBox="0 0 906 254" fill="none" xmlns="http://www.w3.org/2000/svg">
<path d="M210.354 96.1023C210.549 95.9071 210.549 95.5905 210.354 95.3952L207.172 92.2132C206.976 92.018 206.66 92.018 206.464 92.2132C206.269 92.4085 206.269 92.7251 206.464 92.9204L209.293 95.7488L206.464 98.5772C206.269 98.7725 206.269 99.0891 206.464 99.2843C206.66 99.4796 206.976 99.4796 207.172 99.2843L210.354 96.1023ZM92 96.2488H210V95.2488H92V96.2488Z" fill="black"/>
<circle cx="79.5" cy="95.2488" r="48.5" fill="black" fill-opacity="0.03" stroke="black" stroke-width="2" stroke-miterlimit="2.9987" stroke-linejoin="round" stroke-dasharray="2 2"/>
<circle cx="80" cy="95.7488" r="2" fill="#21252A"/>
<circle cx="80" cy="95.7488" r="4.5" stroke="black"/>
<path d="M397.354 96.1023C397.549 95.9071 397.549 95.5905 397.354 95.3952L394.172 92.2132C393.976 92.018 393.66 92.018 393.464 92.2132C393.269 92.4085 393.269 92.7251 393.464 92.9204L396.293 95.7488L393.464 98.5772C393.269 98.7725 393.269 99.0891 393.464 99.2843C393.66 99.4796 393.976 99.4796 394.172 99.2843L397.354 96.1023ZM279 96.2488H397V95.2488H279V96.2488Z" fill="black"/>
<circle cx="266.5" cy="95.2488" r="48.5" fill="black" fill-opacity="0.03" stroke="black" stroke-width="2" stroke-miterlimit="2.9987" stroke-linejoin="round" stroke-dasharray="2 2"/>
<circle cx="267" cy="95.7488" r="2" fill="#21252A"/>
<circle cx="267" cy="95.7488" r="4.5" stroke="black"/>
<path d="M584.354 96.1023C584.549 95.9071 584.549 95.5905 584.354 95.3952L581.172 92.2132C580.976 92.018 580.66 92.018 580.464 92.2132C580.269 92.4085 580.269 92.7251 580.464 92.9204L583.293 95.7488L580.464 98.5772C580.269 98.7725 580.269 99.0891 580.464 99.2843C580.66 99.4796 580.976 99.4796 581.172 99.2843L584.354 96.1023ZM466 96.2488H584V95.2488H466V96.2488Z" fill="black"/>
<circle cx="453.5" cy="95.2488" r="48.5" fill="black" fill-opacity="0.03" stroke="black" stroke-width="2" stroke-miterlimit="2.9987" stroke-linejoin="round" stroke-dasharray="2 2"/>
<circle cx="454" cy="95.7488" r="2" fill="#21252A"/>
<circle cx="454" cy="95.7488" r="4.5" stroke="black"/>
<path d="M771.354 96.1023C771.549 95.9071 771.549 95.5905 771.354 95.3952L768.172 92.2132C767.976 92.018 767.66 92.018 767.464 92.2132C767.269 92.4085 767.269 92.7251 767.464 92.9204L770.293 95.7488L767.464 98.5772C767.269 98.7725 767.269 99.0891 767.464 99.2843C767.66 99.4796 767.976 99.4796 768.172 99.2843L771.354 96.1023ZM653 96.2488H771V95.2488H653V96.2488Z" fill="black"/>
<circle cx="640.5" cy="95.2488" r="48.5" fill="black" fill-opacity="0.03" stroke="black" stroke-width="2" stroke-miterlimit="2.9987" stroke-linejoin="round" stroke-dasharray="2 2"/>
<circle cx="641" cy="95.7488" r="2" fill="#21252A"/>
<circle cx="641" cy="95.7488" r="4.5" stroke="black"/>
<circle cx="827.5" cy="95.2488" r="48.5" fill="black" fill-opacity="0.03" stroke="black" stroke-width="2" stroke-miterlimit="2.9987" stroke-linejoin="round" stroke-dasharray="2 2"/>
<circle cx="828" cy="95.7488" r="2" fill="#21252A"/>
<circle cx="828" cy="95.7488" r="4.5" stroke="black"/>
<path d="M231.19 4.14878H225.448V16.7488H226.978V11.3488H231.19C233.71 11.3488 235.33 9.89078 235.33 7.71278C235.33 5.75078 233.71 4.14878 231.19 4.14878ZM231.19 10.0348H226.978V5.46278H231.19C232.828 5.46278 233.764 6.50678 233.764 7.71278C233.764 8.95478 232.828 10.0348 231.19 10.0348ZM238.787 10.0708V7.74878H237.311V16.7488H238.787V12.8788C238.787 10.1608 240.155 9.04478 242.909 9.31478V7.64078C240.983 7.64078 239.507 8.32478 238.787 10.0708ZM248.087 7.58678C245.387 7.58678 243.623 9.54878 243.623 12.2488C243.623 14.9488 245.387 16.9108 248.087 16.9108C250.787 16.9108 252.551 14.9488 252.551 12.2488C252.551 9.54878 250.787 7.58678 248.087 7.58678ZM248.087 8.84678C249.941 8.84678 251.111 10.2688 251.111 12.2488C251.111 14.2288 249.941 15.6508 248.087 15.6508C246.233 15.6508 245.062 14.2288 245.062 12.2488C245.062 10.2688 246.233 8.84678 248.087 8.84678ZM260.381 9.00878V7.74878H256.817V4.86878H255.341V6.09278C255.341 7.35278 254.891 7.74878 253.469 7.74878H253.451V9.00878H255.341V13.8148C255.341 15.7228 256.619 16.9108 258.635 16.9108C259.229 16.9108 259.769 16.8028 260.381 16.5868V15.2548C259.625 15.5248 259.085 15.5968 258.635 15.5968C257.447 15.5968 256.817 14.9848 256.817 13.8148V9.00878H260.381ZM265.665 7.58678C262.965 7.58678 261.201 9.54878 261.201 12.2488C261.201 14.9488 262.965 16.9108 265.665 16.9108C268.365 16.9108 270.129 14.9488 270.129 12.2488C270.129 9.54878 268.365 7.58678 265.665 7.58678ZM265.665 8.84678C267.519 8.84678 268.689 10.2688 268.689 12.2488C268.689 14.2288 267.519 15.6508 265.665 15.6508C263.811 15.6508 262.641 14.2288 262.641 12.2488C262.641 10.2688 263.811 8.84678 265.665 8.84678ZM277.96 9.00878V7.74878H274.396V4.86878H272.92V6.09278C272.92 7.35278 272.47 7.74878 271.048 7.74878H271.03V9.00878H272.92V13.8148C272.92 15.7228 274.198 16.9108 276.214 16.9108C276.808 16.9108 277.348 16.8028 277.96 16.5868V15.2548C277.204 15.5248 276.664 15.5968 276.214 15.5968C275.026 15.5968 274.396 14.9848 274.396 13.8148V9.00878H277.96ZM287.042 7.74878L283.856 15.2908L280.49 7.74878H278.762L283.118 17.0368L282.758 17.9008C282.398 18.7648 281.678 19.2508 280.868 19.2508C280.328 19.2508 279.608 19.1788 278.618 18.6208V20.0608C279.302 20.3848 280.004 20.5648 280.868 20.5648C282.254 20.5648 283.424 19.7548 284 18.4408L288.68 7.74878H287.042ZM290.292 20.3488H291.768L291.75 15.2368H291.768C292.236 16.2808 293.388 16.9108 294.774 16.9108C297.402 16.9108 299.13 14.9668 299.13 12.2668C299.13 9.54878 297.402 7.58678 294.774 7.58678C293.424 7.58678 292.29 8.28878 291.768 9.44078H291.75L291.768 7.74878H290.292V20.3488ZM294.72 15.6508C292.866 15.6508 291.678 14.2468 291.66 12.3208V12.1768C291.66 10.2508 292.848 8.84678 294.72 8.84678C296.538 8.84678 297.69 10.2868 297.69 12.2668C297.69 14.2288 296.538 15.6508 294.72 15.6508ZM305.125 16.9108C307.123 16.9108 308.743 15.8848 309.283 13.8688H307.645C307.213 15.1648 306.133 15.6508 305.125 15.6508C303.559 15.6508 302.407 14.4628 302.299 12.6448V12.5728H309.355V12.2488C309.355 9.54878 307.663 7.58678 305.125 7.58678C302.623 7.58678 300.751 9.54878 300.751 12.2848C300.751 14.9668 302.461 16.9108 305.125 16.9108ZM302.335 11.2948C302.605 9.81878 303.667 8.84678 305.125 8.84678C306.673 8.84678 307.825 9.92678 307.861 11.2948H302.335Z" fill="black"/>
<path d="M66.8911 4.14878H56.7571V5.46278H61.0591V16.7488H62.5891V5.46278H66.8911V4.14878ZM73.1013 7.58678C71.7153 7.58678 70.6533 8.23478 70.0773 9.51278V4.14878H68.6013V16.7488H70.0773V11.9968C70.0773 10.1788 71.1753 8.88278 72.9573 8.88278C74.2713 8.88278 75.0453 9.87278 75.0453 11.4568V16.7488H76.5213V11.4568C76.5213 9.11678 75.3693 7.58678 73.1013 7.58678ZM79.2297 6.00278H81.1017V4.14878H79.2297V6.00278ZM79.4277 16.7488H80.9037V7.74878H79.4277V16.7488ZM88.3943 7.58678C87.0083 7.58678 85.9463 8.23478 85.3703 9.51278V7.74878H83.8943V16.7488H85.3703V11.9968C85.3703 10.1788 86.4683 8.88278 88.2503 8.88278C89.5643 8.88278 90.3383 9.87278 90.3383 11.4568V16.7488H91.8143V11.4568C91.8143 9.11678 90.6623 7.58678 88.3943 7.58678ZM101.453 16.7488H103.325L99.7607 11.6908L102.965 7.74878H101.111L98.5727 11.0608H96.2687V4.14878H94.7927V16.7488H96.2687V12.3748H98.5367L101.453 16.7488Z" fill="black"/>
<path d="M18.6928 247.749L15.2548 241.899C16.9828 241.539 18.1528 240.207 18.1528 238.479C18.1528 236.553 16.5148 235.149 14.2468 235.149H8.25281V247.749H9.78281V242.007H13.7428L16.8748 247.749H18.6928ZM9.78281 236.463H14.2468C15.5968 236.463 16.5868 237.309 16.5868 238.479C16.5868 239.757 15.5968 240.693 14.2468 240.693H9.78281V236.463ZM24.2445 247.911C26.2425 247.911 27.8625 246.885 28.4025 244.869H26.7645C26.3325 246.165 25.2525 246.651 24.2445 246.651C22.6785 246.651 21.5265 245.463 21.4185 243.645V243.573H28.4745V243.249C28.4745 240.549 26.7825 238.587 24.2445 238.587C21.7425 238.587 19.8705 240.549 19.8705 243.285C19.8705 245.967 21.5805 247.911 24.2445 247.911ZM21.4545 242.295C21.7245 240.819 22.7865 239.847 24.2445 239.847C25.7925 239.847 26.9445 240.927 26.9805 242.295H21.4545ZM30.821 251.349H32.297L32.279 246.237H32.297C32.765 247.281 33.917 247.911 35.303 247.911C37.931 247.911 39.659 245.967 39.659 243.267C39.659 240.549 37.931 238.587 35.303 238.587C33.953 238.587 32.819 239.289 32.297 240.441H32.279L32.297 238.749H30.821V251.349ZM35.249 246.651C33.395 246.651 32.207 245.247 32.189 243.321V243.177C32.189 241.251 33.377 239.847 35.249 239.847C37.067 239.847 38.219 241.287 38.219 243.267C38.219 245.229 37.067 246.651 35.249 246.651ZM45.6547 247.911C47.6527 247.911 49.2727 246.885 49.8127 244.869H48.1747C47.7427 246.165 46.6627 246.651 45.6547 246.651C44.0887 246.651 42.9367 245.463 42.8287 243.645V243.573H49.8847V243.249C49.8847 240.549 48.1927 238.587 45.6547 238.587C43.1527 238.587 41.2807 240.549 41.2807 243.285C41.2807 245.967 42.9907 247.911 45.6547 247.911ZM42.8647 242.295C43.1347 240.819 44.1967 239.847 45.6547 239.847C47.2027 239.847 48.3547 240.927 48.3907 242.295H42.8647ZM55.5252 238.587C53.4192 238.587 51.8712 239.847 51.8172 241.593H53.4012C53.4732 240.585 54.3372 239.847 55.5432 239.847C56.9292 239.847 57.7572 240.603 57.7572 241.881V242.367H56.5152C52.8972 242.367 51.4572 243.501 51.4572 245.319C51.4572 246.831 52.6632 247.911 54.3192 247.911C56.1912 247.911 57.2532 247.029 57.7212 246.327H57.7572V247.749H59.2332V241.881C59.2332 239.829 57.8472 238.587 55.5252 238.587ZM54.6792 246.723C53.6892 246.723 52.9692 246.129 52.9692 245.301C52.9692 244.185 53.8152 243.447 56.5152 243.447H57.7572V244.275C57.7392 245.517 56.4612 246.723 54.6792 246.723ZM67.6022 240.009V238.749H64.0382V235.869H62.5622V237.093C62.5622 238.353 62.1122 238.749 60.6902 238.749H60.6722V240.009H62.5622V244.815C62.5622 246.723 63.8402 247.911 65.8562 247.911C66.4502 247.911 66.9902 247.803 67.6022 247.587V246.255C66.8462 246.525 66.3062 246.597 65.8562 246.597C64.6682 246.597 64.0382 245.985 64.0382 244.815V240.009H67.6022ZM81.5085 236.463V235.149H73.8945V236.463H76.9365V246.435H73.8945V247.749H81.5085V246.435H78.4665V236.463H81.5085ZM88.8014 240.009V238.749H85.2374V235.869H83.7614V237.093C83.7614 238.353 83.3114 238.749 81.8894 238.749H81.8714V240.009H83.7614V244.815C83.7614 246.723 85.0394 247.911 87.0554 247.911C87.6494 247.911 88.1894 247.803 88.8014 247.587V246.255C88.0454 246.525 87.5054 246.597 87.0554 246.597C85.8674 246.597 85.2374 245.985 85.2374 244.815V240.009H88.8014ZM93.9945 247.911C95.9925 247.911 97.6125 246.885 98.1525 244.869H96.5145C96.0825 246.165 95.0025 246.651 93.9945 246.651C92.4285 246.651 91.2765 245.463 91.1685 243.645V243.573H98.2245V243.249C98.2245 240.549 96.5325 238.587 93.9945 238.587C91.4925 238.587 89.6205 240.549 89.6205 243.285C89.6205 245.967 91.3305 247.911 93.9945 247.911ZM91.2045 242.295C91.4745 240.819 92.5365 239.847 93.9945 239.847C95.5425 239.847 96.6945 240.927 96.7305 242.295H91.2045ZM102.047 241.071V238.749H100.571V247.749H102.047V243.879C102.047 241.161 103.415 240.045 106.169 240.315V238.641C104.243 238.641 102.767 239.325 102.047 241.071ZM111.09 238.587C108.984 238.587 107.436 239.847 107.382 241.593H108.966C109.038 240.585 109.902 239.847 111.108 239.847C112.494 239.847 113.322 240.603 113.322 241.881V242.367H112.08C108.462 242.367 107.022 243.501 107.022 245.319C107.022 246.831 108.228 247.911 109.884 247.911C111.756 247.911 112.818 247.029 113.286 246.327H113.322V247.749H114.798V241.881C114.798 239.829 113.412 238.587 111.09 238.587ZM110.244 246.723C109.254 246.723 108.534 246.129 108.534 245.301C108.534 244.185 109.38 243.447 112.08 243.447H113.322V244.275C113.304 245.517 112.026 246.723 110.244 246.723ZM123.167 240.009V238.749H119.603V235.869H118.127V237.093C118.127 238.353 117.677 238.749 116.255 238.749H116.237V240.009H118.127V244.815C118.127 246.723 119.405 247.911 121.421 247.911C122.015 247.911 122.555 247.803 123.167 247.587V246.255C122.411 246.525 121.871 246.597 121.421 246.597C120.233 246.597 119.603 245.985 119.603 244.815V240.009H123.167ZM124.787 237.003H126.659V235.149H124.787V237.003ZM124.985 247.749H126.461V238.749H124.985V247.749ZM133.196 238.587C130.496 238.587 128.732 240.549 128.732 243.249C128.732 245.949 130.496 247.911 133.196 247.911C135.896 247.911 137.66 245.949 137.66 243.249C137.66 240.549 135.896 238.587 133.196 238.587ZM133.196 239.847C135.05 239.847 136.22 241.269 136.22 243.249C136.22 245.229 135.05 246.651 133.196 246.651C131.342 246.651 130.172 245.229 130.172 243.249C130.172 241.269 131.342 239.847 133.196 239.847ZM144.499 238.587C143.113 238.587 142.051 239.235 141.475 240.513V238.749H139.999V247.749H141.475V242.997C141.475 241.179 142.573 239.883 144.355 239.883C145.669 239.883 146.443 240.873 146.443 242.457V247.749H147.919V242.457C147.919 240.117 146.767 238.587 144.499 238.587Z" fill="black"/>
<path d="M441.014 10.2868C442.256 9.67478 443.102 8.61278 443.102 7.19078C443.102 5.37278 441.626 4.14878 439.322 4.14878H433.832V16.7488H439.412C442.022 16.7488 443.732 15.4708 443.732 13.3468C443.732 11.6908 442.688 10.6648 441.014 10.2868ZM435.362 5.46278H439.178C440.564 5.46278 441.572 6.21878 441.572 7.51478C441.572 8.63078 440.834 9.69278 438.818 9.69278H435.362V5.46278ZM439.268 15.4348H435.362V11.0068H439.448C441.464 11.0068 442.202 12.0328 442.202 13.1668C442.202 14.8048 440.744 15.4348 439.268 15.4348ZM453.558 7.74878H452.082V12.5008C452.082 14.3188 450.984 15.6148 449.202 15.6148C447.888 15.6148 447.114 14.6248 447.114 13.0408V7.74878H445.638V13.0408C445.638 15.3808 446.79 16.9108 449.058 16.9108C450.39 16.9108 451.47 16.3168 452.082 15.1108V16.7488H453.558V7.74878ZM456.341 6.00278H458.213V4.14878H456.341V6.00278ZM456.539 16.7488H458.015V7.74878H456.539V16.7488ZM464.408 16.6408V15.3268C463.868 15.5968 463.49 15.6508 463.202 15.6508C462.68 15.6508 462.302 15.1648 462.302 14.4628V4.14878H460.826V14.5348C460.826 15.9208 461.654 16.9108 463.04 16.9108C463.4 16.9108 463.868 16.8388 464.408 16.6408ZM469.669 16.9108C471.019 16.9108 472.333 16.2088 472.855 15.0568H472.873V16.7488H474.349V4.14878H472.873V9.26078H472.837C472.369 8.21678 471.055 7.58678 469.669 7.58678C467.041 7.58678 465.313 9.53078 465.313 12.2308C465.313 14.9488 467.041 16.9108 469.669 16.9108ZM469.723 8.84678C471.577 8.84678 472.765 10.2508 472.783 12.1768V12.3208C472.783 14.2468 471.595 15.6508 469.723 15.6508C467.905 15.6508 466.753 14.2108 466.753 12.2308C466.753 10.2688 467.905 8.84678 469.723 8.84678Z" fill="black"/>
<path d="M612.58 15.4348V4.14878H611.05V16.7488H611.95H619.204V15.4348H612.58ZM624.924 7.58678C622.818 7.58678 621.27 8.84678 621.216 10.5928H622.8C622.872 9.58478 623.736 8.84678 624.942 8.84678C626.328 8.84678 627.156 9.60278 627.156 10.8808V11.3668H625.914C622.296 11.3668 620.856 12.5008 620.856 14.3188C620.856 15.8308 622.062 16.9108 623.718 16.9108C625.59 16.9108 626.652 16.0288 627.12 15.3268H627.156V16.7488H628.632V10.8808C628.632 8.82878 627.246 7.58678 624.924 7.58678ZM624.078 15.7228C623.088 15.7228 622.368 15.1288 622.368 14.3008C622.368 13.1848 623.214 12.4468 625.914 12.4468H627.156V13.2748C627.138 14.5168 625.86 15.7228 624.078 15.7228ZM639.336 7.74878H637.86V12.5008C637.86 14.3188 636.762 15.6148 634.98 15.6148C633.666 15.6148 632.892 14.6248 632.892 13.0408V7.74878H631.416V13.0408C631.416 15.3808 632.568 16.9108 634.836 16.9108C636.168 16.9108 637.248 16.3168 637.86 15.1108V16.7488H639.336V7.74878ZM646.889 7.58678C645.503 7.58678 644.441 8.23478 643.865 9.51278V7.74878H642.389V16.7488H643.865V11.9968C643.865 10.1788 644.963 8.88278 646.745 8.88278C648.059 8.88278 648.833 9.87278 648.833 11.4568V16.7488H650.309V11.4568C650.309 9.11678 649.157 7.58678 646.889 7.58678ZM661.082 13.4188H659.606C659.39 14.7148 658.544 15.6508 656.942 15.6508C655.088 15.6508 654.008 14.2288 654.008 12.2488C654.008 10.2688 655.088 8.84678 656.942 8.84678C658.454 8.84678 659.264 9.69278 659.516 10.8628H661.028C660.722 8.95478 659.264 7.58678 656.942 7.58678C654.242 7.58678 652.568 9.54878 652.568 12.2488C652.568 14.9488 654.242 16.9108 656.942 16.9108C659.372 16.9108 660.848 15.4528 661.082 13.4188ZM667.702 7.58678C666.316 7.58678 665.254 8.23478 664.678 9.51278V4.14878H663.202V16.7488H664.678V11.9968C664.678 10.1788 665.776 8.88278 667.558 8.88278C668.872 8.88278 669.646 9.87278 669.646 11.4568V16.7488H671.122V11.4568C671.122 9.11678 669.97 7.58678 667.702 7.58678Z" fill="black"/>
<path d="M804.38 4.14878L799.394 10.0168L794.408 4.14878H793.058V16.7488H794.588V6.74078L799.268 12.1588H799.52L804.2 6.74078V16.7488H805.73V4.14878H804.38ZM812.53 16.9108C814.528 16.9108 816.148 15.8848 816.688 13.8688H815.05C814.618 15.1648 813.538 15.6508 812.53 15.6508C810.964 15.6508 809.812 14.4628 809.704 12.6448V12.5728H816.76V12.2488C816.76 9.54878 815.068 7.58678 812.53 7.58678C810.028 7.58678 808.156 9.54878 808.156 12.2848C808.156 14.9668 809.866 16.9108 812.53 16.9108ZM809.74 11.2948C810.01 9.81878 811.072 8.84678 812.53 8.84678C814.078 8.84678 815.23 9.92678 815.266 11.2948H809.74ZM822.4 7.58678C820.294 7.58678 818.746 8.84678 818.692 10.5928H820.276C820.348 9.58478 821.212 8.84678 822.418 8.84678C823.804 8.84678 824.632 9.60278 824.632 10.8808V11.3668H823.39C819.772 11.3668 818.332 12.5008 818.332 14.3188C818.332 15.8308 819.538 16.9108 821.194 16.9108C823.066 16.9108 824.128 16.0288 824.596 15.3268H824.632V16.7488H826.108V10.8808C826.108 8.82878 824.722 7.58678 822.4 7.58678ZM821.554 15.7228C820.564 15.7228 819.844 15.1288 819.844 14.3008C819.844 13.1848 820.69 12.4468 823.39 12.4468H824.632V13.2748C824.614 14.5168 823.336 15.7228 821.554 15.7228ZM834.257 10.6468H835.697C835.427 8.59478 834.149 7.58678 831.989 7.58678C830.171 7.58678 828.551 8.30678 828.551 10.1788C828.551 12.1228 830.243 12.3748 832.043 12.8248C833.663 13.2208 834.365 13.3288 834.365 14.2648C834.365 15.3268 833.429 15.6508 832.277 15.6508C830.639 15.6508 829.775 14.8588 829.631 13.5448H828.227C828.335 15.6688 829.847 16.9108 832.259 16.9108C834.329 16.9108 835.787 16.0468 835.787 14.1928C835.787 12.2488 834.185 12.0148 832.331 11.5468C830.819 11.1688 829.991 11.0248 829.991 10.0888C829.991 9.36878 830.747 8.84678 831.935 8.84678C833.339 8.84678 834.077 9.40478 834.257 10.6468ZM845.778 7.74878H844.302V12.5008C844.302 14.3188 843.204 15.6148 841.422 15.6148C840.108 15.6148 839.334 14.6248 839.334 13.0408V7.74878H837.858V13.0408C837.858 15.3808 839.01 16.9108 841.278 16.9108C842.61 16.9108 843.69 16.3168 844.302 15.1108V16.7488H845.778V7.74878ZM850.307 10.0708V7.74878H848.831V16.7488H850.307V12.8788C850.307 10.1608 851.675 9.04478 854.429 9.31478V7.64078C852.503 7.64078 851.027 8.32478 850.307 10.0708ZM859.516 16.9108C861.514 16.9108 863.134 15.8848 863.674 13.8688H862.036C861.604 15.1648 860.524 15.6508 859.516 15.6508C857.95 15.6508 856.798 14.4628 856.69 12.6448V12.5728H863.746V12.2488C863.746 9.54878 862.054 7.58678 859.516 7.58678C857.014 7.58678 855.142 9.54878 855.142 12.2848C855.142 14.9668 856.852 16.9108 859.516 16.9108ZM856.726 11.2948C856.996 9.81878 858.058 8.84678 859.516 8.84678C861.064 8.84678 862.216 9.92678 862.252 11.2948H856.726Z" fill="black"/>
<g clip-path="url(#clip0)">
<path d="M828 105.213V198.284C828 210.987 817.703 221.284 805 221.284H101C88.2974 221.284 78 210.987 78 198.284V153.499" stroke="black"/>
<path d="M73 157.749L78 152.749L83 157.749" stroke="black"/>
</g>
<defs>
<clipPath id="clip0">
<rect width="757" height="117" fill="white" transform="translate(72 104.749)"/>
</clipPath>
</defs>
</svg>
