<svg width="331" height="331" viewBox="0 0 331 331" fill="none" xmlns="http://www.w3.org/2000/svg">
<path fill-rule="evenodd" clip-rule="evenodd" d="M165.658 0.744141L330.414 165.5L165.658 330.256L0.902448 165.5L165.658 0.744141ZM165.658 12.0578L12.2162 165.5L165.658 318.942L319.1 165.5L165.658 12.0578Z" fill="#CCCCCC"/>
<path fill-rule="evenodd" clip-rule="evenodd" d="M50.9624 115.27L172.361 236.669L165.29 243.74L43.8914 122.341L50.9624 115.27Z" fill="#CCCCCC"/>
<path d="M165.703 235.896V183.814L217.785 133.264V183.814L165.703 235.896Z" fill="#828282"/>
<path fill-rule="evenodd" clip-rule="evenodd" d="M287.048 121.982L165.29 243.74L158.219 236.669L279.977 114.911L287.048 121.982Z" fill="#CCCCCC"/>
<path fill-rule="evenodd" clip-rule="evenodd" d="M222.606 119.965V184.353H212.606V144.107L165.29 191.424L117.974 144.107V184.353H107.974V119.965L165.29 177.281L222.606 119.965Z" fill="#CCCCCC"/>
<path fill-rule="evenodd" clip-rule="evenodd" d="M106.649 68.9187L113.72 61.8477L165.29 113.418L216.86 61.8477L223.931 68.9187L165.29 127.56L106.649 68.9187Z" fill="#CCCCCC"/>
</svg>
