<svg width="331" height="331" viewBox="0 0 331 331" fill="none" xmlns="http://www.w3.org/2000/svg">
<path d="M324.757 165.5L165.658 6.40088L6.5593 165.5L165.658 324.599L324.757 165.5Z" fill="#FA4E04"/>
<path fill-rule="evenodd" clip-rule="evenodd" d="M165.658 0.744141L330.414 165.5L165.658 330.256L0.902448 165.5L165.658 0.744141ZM165.658 12.0578L12.2162 165.5L165.658 318.942L319.1 165.5L165.658 12.0578Z" fill="black"/>
<path d="M273.915 120.32L219.482 182.96V131.071L165.519 182.96V12.1318L273.915 120.32Z" fill="#FF8515"/>
<path fill-rule="evenodd" clip-rule="evenodd" d="M50.9624 115.27L172.361 236.669L165.29 243.74L43.8914 122.341L50.9624 115.27Z" fill="black"/>
<path d="M165.703 235.896V183.814L217.785 133.264V183.814L165.703 235.896Z" fill="#FFB627"/>
<path fill-rule="evenodd" clip-rule="evenodd" d="M287.048 121.982L165.29 243.74L158.219 236.669L279.977 114.911L287.048 121.982Z" fill="black"/>
<path fill-rule="evenodd" clip-rule="evenodd" d="M222.606 119.965V184.353H212.606V144.107L165.29 191.424L117.974 144.107V184.353H107.974V119.965L165.29 177.281L222.606 119.965Z" fill="black"/>
<path fill-rule="evenodd" clip-rule="evenodd" d="M106.649 68.9187L113.72 61.8477L165.29 113.418L216.86 61.8477L223.931 68.9187L165.29 127.56L106.649 68.9187Z" fill="black"/>
<path d="M120.572 250.643L104.997 235.068L97.1034 242.961L112.678 258.536L120.572 250.643Z" fill="#FA4E04"/>
<path d="M209.924 250.643L225.499 235.068L233.393 242.961L217.818 258.536L209.924 250.643Z" fill="#FA4E04"/>
</svg>
