<svg width="113" height="112" viewBox="0 0 113 112" fill="none" xmlns="http://www.w3.org/2000/svg">
<rect x="0.887695" width="112" height="112" rx="3.77528" fill="#333333"/>
<path d="M89.229 41.5694C89.2179 47.7361 87.3779 53.761 83.9417 58.8816C80.5056 64.0023 75.6278 67.9887 69.9254 70.3364C64.2231 72.6841 57.9525 73.2876 51.9071 72.0706C45.8616 70.8536 40.3131 67.8707 35.9633 63.4994C31.6136 59.1281 28.6582 53.5648 27.4712 47.5135C26.2841 41.4621 26.9186 35.1946 29.2945 29.5039C31.6704 23.8133 35.6809 18.9552 40.8185 15.5445C45.9561 12.1337 51.99 10.3235 58.1567 10.3429C66.4072 10.3984 74.3017 13.711 80.1213 19.5595C85.9409 25.408 89.2144 33.3188 89.229 41.5694ZM66.8883 68.4371C73.3108 66.3227 78.7696 61.989 82.2857 56.2136C85.8017 50.4382 87.1448 43.5989 86.0741 36.9227C85.0034 30.2465 81.5889 24.1702 76.4431 19.784C71.2973 15.3977 64.757 12.9885 57.9955 12.9885C51.234 12.9885 44.6937 15.3977 39.5479 19.784C34.4022 24.1702 30.9876 30.2465 29.9169 36.9227C28.8462 43.5989 30.1893 50.4382 33.7054 56.2136C37.2214 61.989 42.6803 66.3227 49.1027 68.4371C51.4993 61.2331 54.0782 53.6928 56.3767 46.7972C55.058 46.0948 53.9538 45.0487 53.1812 43.7699C52.572 42.5208 52.4838 41.081 52.9358 39.7669C53.3878 38.4529 54.3432 37.372 55.5919 36.7621C56.3095 36.3967 57.1004 36.1978 57.9055 36.1804C58.7107 36.163 59.5094 36.3274 60.2422 36.6615C60.975 36.9956 61.623 37.4906 62.1379 38.1099C62.6529 38.7291 63.0215 39.4565 63.2163 40.238C63.903 42.7047 62.8659 44.7229 60.5814 46.2366C60.245 46.4889 60.1329 46.5589 59.8386 46.7552C59.8386 47.1196 61.8848 52.8379 62.7117 55.4027C64.0993 59.7055 65.4728 64.0222 66.8883 68.4371ZM57.9745 62.7188C58.7624 61.6564 59.4922 60.5523 60.1609 59.4111C60.4308 58.8176 60.4853 58.1485 60.3151 57.519C59.9086 56.1175 59.334 54.716 58.8154 53.4265C58.6052 52.8939 58.3529 52.3894 57.9745 51.5485C57.0355 53.9871 56.2226 56.0474 55.4797 58.1357C55.3785 58.4873 55.4187 58.8646 55.5919 59.1869C56.3627 60.3782 57.1476 61.4854 57.9745 62.7188ZM64.4777 69.208L64.8421 68.8716L61.9409 61.2892L59.6003 64.6529L64.4777 69.208ZM51.191 68.8996L51.5694 69.1519L56.2646 64.7931L53.91 61.7517L51.191 68.8996ZM61.4223 69.6985C60.245 68.6473 59.348 67.7924 58.3809 67.0075C58.2326 66.9266 58.0664 66.8841 57.8974 66.8841C57.7284 66.8841 57.5622 66.9266 57.4139 67.0075C56.4608 67.7924 55.5778 68.6614 54.4005 69.8106L61.4223 69.6985Z" fill="#F85100"/>
<path d="M71.8916 27.6803L73.6295 25.9424C82.4593 33.749 82.6835 48.9698 73.6295 57.1128L71.9056 55.3469C75.5034 51.6408 77.5157 46.6788 77.5157 41.5136C77.5157 36.3484 75.5034 31.3864 71.9056 27.6803H71.8916Z" fill="#F85100"/>
<path d="M44.0988 55.3469L42.3749 57.0988C33.3349 48.9698 33.5591 33.763 42.3749 25.9424L44.1128 27.6803C40.5183 31.3881 38.5082 36.3495 38.5082 41.5136C38.5082 46.6777 40.5183 51.6391 44.1128 55.3469H44.0988Z" fill="#F85100"/>
<path d="M48.3599 31.8848L50.2099 33.9591C49.1829 34.9048 48.3786 36.0667 47.8551 37.3609C47.3315 38.6552 47.1018 40.0495 47.1826 41.4433C47.0761 42.8662 47.3018 44.2943 47.8417 45.6151C48.3817 46.9358 49.2212 48.113 50.294 49.0537L48.2618 51.0019C42.9779 45.5358 42.8098 37.8133 48.3599 31.8848Z" fill="#F85100"/>
<path d="M67.7858 31.9404C73.392 38.3035 72.7753 45.7877 67.7157 51.0856L65.8236 49.0674C66.8588 48.1273 67.6695 46.9667 68.1959 45.6713C68.7224 44.3759 68.951 42.9787 68.865 41.5831C68.9743 40.1592 68.7514 38.7293 68.2139 37.4062C67.6764 36.0831 66.839 34.9029 65.7676 33.9587L67.7858 31.9404Z" fill="#F85100"/>
<path d="M28.0681 96.9438C26.9003 96.9438 25.8483 96.677 24.912 96.1434C23.9757 95.5998 23.2358 94.8447 22.6921 93.8783C22.1586 92.9118 21.8918 91.8094 21.8918 90.5711C21.8918 89.3328 22.1586 88.2304 22.6921 87.264C23.2358 86.2975 23.9757 85.5475 24.912 85.0139C25.8483 84.4703 26.9003 84.1984 28.0681 84.1984C29.2359 84.1984 30.288 84.4703 31.2243 85.0139C32.1605 85.5475 32.8955 86.2975 33.429 87.264C33.9626 88.2304 34.2294 89.3328 34.2294 90.5711C34.2294 91.8094 33.9626 92.9118 33.429 93.8783C32.8955 94.8447 32.1605 95.5998 31.2243 96.1434C30.288 96.677 29.2359 96.9438 28.0681 96.9438ZM28.0681 94.9957C28.8735 94.9957 29.5933 94.8145 30.2276 94.4521C30.8719 94.0796 31.3753 93.5611 31.7377 92.8967C32.1001 92.2222 32.2813 91.447 32.2813 90.5711C32.2813 89.6953 32.1001 88.9251 31.7377 88.2606C31.3753 87.5861 30.8719 87.0677 30.2276 86.7052C29.5933 86.3327 28.8735 86.1465 28.0681 86.1465C27.2627 86.1465 26.5379 86.3327 25.8936 86.7052C25.2492 87.0677 24.7459 87.5861 24.3835 88.2606C24.021 88.9251 23.8398 89.6953 23.8398 90.5711C23.8398 91.447 24.021 92.2222 24.3835 92.8967C24.7459 93.5611 25.2492 94.0796 25.8936 94.4521C26.5379 94.8145 27.2627 94.9957 28.0681 94.9957ZM42.9506 88.5325C43.2023 88.5325 43.4137 88.6231 43.5849 88.8043C43.7661 88.9855 43.8567 89.1969 43.8567 89.4385C43.8567 89.5493 43.8265 89.6751 43.7661 89.8161L40.5194 96.6871C40.4287 96.8683 40.313 97.0042 40.172 97.0948C40.0412 97.1955 39.8952 97.2458 39.7341 97.2458C39.573 97.2458 39.422 97.1955 39.2811 97.0948C39.1401 96.9941 39.0243 96.8482 38.9337 96.6569L35.838 89.801C35.7776 89.6802 35.7474 89.5543 35.7474 89.4234C35.7474 89.1717 35.833 88.9603 36.0041 88.7892C36.1753 88.618 36.3917 88.5325 36.6535 88.5325C36.8246 88.5325 36.9857 88.5828 37.1367 88.6835C37.2877 88.7741 37.4035 88.905 37.484 89.0761L39.7794 94.3313L42.1201 89.0761C42.2006 88.905 42.3164 88.7741 42.4674 88.6835C42.6184 88.5828 42.7795 88.5325 42.9506 88.5325ZM51.689 94.2407C51.9306 94.2407 52.1219 94.3162 52.2628 94.4672C52.4138 94.6182 52.4894 94.8045 52.4894 95.0259C52.4894 95.328 52.4138 95.5595 52.2628 95.7206C51.9004 96.1132 51.4222 96.4203 50.8282 96.6418C50.2443 96.8633 49.6201 96.974 48.9557 96.974C48.1503 96.974 47.4305 96.8028 46.7962 96.4606C46.162 96.1183 45.6636 95.6451 45.3012 95.0411C44.9489 94.4269 44.7727 93.7273 44.7727 92.942C44.7727 92.1265 44.9539 91.3916 45.3163 90.7372C45.6888 90.0728 46.1872 89.5543 46.8113 89.1818C47.4355 88.7993 48.1251 88.608 48.8802 88.608C49.5547 88.608 50.1537 88.7137 50.6772 88.9251C51.2108 89.1264 51.6286 89.4184 51.9306 89.801C52.2326 90.1735 52.3836 90.6114 52.3836 91.1148C52.3836 91.5779 52.2377 91.9906 51.9457 92.3531C51.6538 92.7155 51.246 92.9974 50.7225 93.1987C50.2091 93.4001 49.6201 93.5007 48.9557 93.5007C47.9993 93.5007 47.209 93.3246 46.5848 92.9722V93.0024C46.5848 93.6668 46.7962 94.1954 47.2191 94.588C47.652 94.9706 48.2308 95.1619 48.9557 95.1619C49.4087 95.1619 49.7762 95.1115 50.0581 95.0108C50.34 94.9102 50.6269 94.7491 50.9188 94.5276C51.1806 94.3363 51.4373 94.2407 51.689 94.2407ZM48.8802 90.4201C47.9741 90.4201 47.3348 90.7372 46.9623 91.3715C47.5362 91.7339 48.2006 91.9151 48.9557 91.9151C49.4289 91.9151 49.8165 91.8497 50.1185 91.7188C50.4205 91.5779 50.5715 91.4117 50.5715 91.2205C50.5715 90.9889 50.4104 90.7976 50.0883 90.6466C49.7762 90.4956 49.3735 90.4201 48.8802 90.4201ZM57.9827 88.5929C58.4056 88.5929 58.7932 88.6835 59.1455 88.8647C59.508 89.0459 59.7898 89.2976 59.9912 89.6197C60.1925 89.9318 60.2932 90.2842 60.2932 90.6768C60.2932 91.15 60.1573 91.5678 59.8855 91.9302C59.6137 92.2826 59.2512 92.5594 58.7982 92.7608C58.6371 92.8011 58.5213 92.8212 58.4509 92.8212C58.1992 92.8212 57.9827 92.7356 57.8015 92.5645C57.6203 92.3833 57.5297 92.1668 57.5297 91.9151C57.5297 91.7238 57.58 91.5527 57.6807 91.4017C57.7915 91.2406 57.9324 91.1299 58.1036 91.0695C58.1942 91.0292 58.2797 90.9688 58.3603 90.8882C58.4408 90.8077 58.4811 90.7372 58.4811 90.6768C58.4811 90.5661 58.4257 90.4654 58.315 90.3748C58.2143 90.2842 58.1036 90.2389 57.9827 90.2389H56.4273C56.5079 90.5409 56.5481 90.848 56.5481 91.1601C56.5381 91.754 56.5179 92.5544 56.4877 93.5611C56.4575 94.5679 56.4324 95.3431 56.4122 95.8867C56.3921 96.1384 56.2965 96.3498 56.1253 96.521C55.9542 96.7022 55.7478 96.7928 55.5062 96.7928C55.2545 96.7928 55.038 96.7022 54.8568 96.521C54.6857 96.3397 54.6001 96.1283 54.6001 95.8867L54.6454 94.1048C54.7058 92.5141 54.736 91.5124 54.736 91.0997C54.736 90.6164 54.5951 90.2943 54.3132 90.1332C54.1622 90.0526 54.0514 89.9469 53.9809 89.8161C53.9205 89.6751 53.8903 89.5291 53.8903 89.3781C53.8903 89.1264 53.9709 88.9352 54.132 88.8043C54.293 88.6633 54.5045 88.5929 54.7662 88.5929H57.9827ZM65.5578 96.8532C64.8229 96.8532 64.1434 96.682 63.5192 96.3397C62.9051 95.9874 62.4168 95.5042 62.0544 94.89C61.692 94.2759 61.5107 93.5863 61.5107 92.8212C61.5107 91.9957 61.6769 91.2758 62.0091 90.6617C62.3514 90.0375 62.8245 89.5593 63.4286 89.2271C64.0427 88.8848 64.7424 88.7137 65.5276 88.7137C66.1015 88.7137 66.63 88.8295 67.1133 89.061C67.6066 89.2825 68.0042 89.5996 68.3062 90.0124C68.6083 90.4151 68.7794 90.8681 68.8197 91.3715V91.4621C68.8197 91.7943 68.7341 92.046 68.563 92.2171C68.4019 92.3782 68.1854 92.4588 67.9136 92.4588C67.6921 92.4588 67.4908 92.3732 67.3096 92.202C67.1384 92.0309 67.0428 91.7893 67.0227 91.4772C66.9925 91.2154 66.8314 90.9939 66.5394 90.8127C66.2575 90.6215 65.9203 90.5258 65.5276 90.5258C64.8632 90.5258 64.3296 90.7322 63.9269 91.145C63.5242 91.5577 63.3229 92.1366 63.3229 92.8816C63.3229 93.3044 63.4185 93.6819 63.6098 94.0142C63.8111 94.3363 64.083 94.588 64.4253 94.7692C64.7676 94.9504 65.1451 95.0411 65.5578 95.0411C65.9303 95.0411 66.2777 94.9806 66.5998 94.8598C66.922 94.729 67.1938 94.5578 67.4153 94.3464C67.516 94.2558 67.6267 94.1803 67.7475 94.1199C67.8784 94.0595 67.9992 94.0293 68.1099 94.0293C68.3717 94.0293 68.5881 94.1148 68.7593 94.286C68.9304 94.4571 69.016 94.6736 69.016 94.9353C69.016 95.0259 68.9959 95.1317 68.9556 95.2525C68.9153 95.3632 68.865 95.4538 68.8046 95.5243C68.4925 95.9169 68.0344 96.2391 67.4304 96.4908C66.8263 96.7324 66.2022 96.8532 65.5578 96.8532ZM77.3987 95.2223C77.6806 95.3129 77.8819 95.4186 78.0027 95.5394C78.1336 95.6602 78.199 95.8263 78.199 96.0377C78.199 96.2894 78.0883 96.5008 77.8668 96.672C77.6554 96.8532 77.3987 96.9438 77.0966 96.9438C76.6436 96.9438 76.251 96.8079 75.9188 96.5361C75.5966 96.2642 75.4053 95.9068 75.3449 95.4639C75.2744 95.0411 75.2392 94.5024 75.2392 93.8481C75.2392 93.4554 75.2442 93.1534 75.2543 92.942C74.8919 93.1635 74.4036 93.385 73.7895 93.6064C73.1955 93.8078 72.7727 93.994 72.521 94.1652C72.2794 94.3363 72.1586 94.5326 72.1586 94.7541C72.1586 94.885 72.2139 94.9907 72.3247 95.0713C72.4455 95.1518 72.5915 95.1921 72.7626 95.1921C72.8834 95.1921 73.0143 95.1719 73.1552 95.1317C73.3063 95.0813 73.4321 95.0108 73.5328 94.9202C73.6737 94.7793 73.865 94.7088 74.1066 94.7088C74.3583 94.7088 74.5597 94.7894 74.7107 94.9504C74.8617 95.1115 74.9372 95.3129 74.9372 95.5545C74.9372 95.6552 74.907 95.776 74.8466 95.9169C74.7962 96.0478 74.7358 96.1535 74.6654 96.234C74.2425 96.7173 73.6083 96.9589 72.7626 96.9589C72.068 96.9589 71.5042 96.7777 71.0713 96.4153C70.6384 96.0428 70.4219 95.5595 70.4219 94.9655C70.4219 93.6668 71.4488 92.7054 73.5026 92.0812C74.1368 91.8799 74.61 91.6886 74.9221 91.5074C75.2342 91.3161 75.3952 91.1198 75.4053 90.9184C75.3952 90.707 75.2795 90.5409 75.058 90.4201C74.8365 90.2892 74.5395 90.2238 74.167 90.2238C73.3918 90.2238 72.8633 90.4906 72.5814 91.0242C72.5009 91.1752 72.3851 91.301 72.2341 91.4017C72.0931 91.4923 71.9421 91.5376 71.781 91.5376C71.5294 91.5376 71.3129 91.452 71.1317 91.2809C70.9505 91.0997 70.8599 90.8832 70.8599 90.6315C70.8599 90.259 71.0159 89.9117 71.328 89.5895C71.6401 89.2573 72.0529 88.9905 72.5663 88.7892C73.0797 88.5878 73.6133 88.4872 74.167 88.4872C75.1234 88.4872 75.8583 88.7036 76.3718 89.1365C76.8852 89.5694 77.1419 90.1886 77.1419 90.9939V91.1601C77.0815 92.9923 77.0513 94.0293 77.0513 94.2709C77.0513 94.432 77.0715 94.6233 77.1117 94.8447C77.1218 94.9253 77.157 95.0058 77.2174 95.0864C77.2879 95.1568 77.3483 95.2021 77.3987 95.2223ZM82.7547 96.8683C82.05 96.8683 81.3805 96.7072 80.7463 96.3851C80.112 96.0528 79.659 95.6199 79.3872 95.0864C79.3066 94.9253 79.2664 94.7692 79.2664 94.6182C79.2664 94.3665 79.3519 94.1551 79.5231 93.984C79.7043 93.8028 79.9207 93.7122 80.1724 93.7122C80.3234 93.7122 80.4644 93.7524 80.5953 93.833C80.7261 93.9034 80.8419 94.0142 80.9426 94.1652C81.1641 94.5175 81.4409 94.7793 81.7731 94.9504C82.1054 95.1115 82.4326 95.1921 82.7547 95.1921C83.1876 95.1921 83.5601 95.1317 83.8722 95.0108C84.1843 94.88 84.3403 94.7038 84.3403 94.4823C84.3403 94.3313 84.1994 94.1803 83.9175 94.0293C83.6356 93.8682 83.1474 93.6668 82.4527 93.4252C81.8487 93.2138 81.3503 93.0125 80.9577 92.8212C80.5751 92.6198 80.253 92.3631 79.9912 92.051C79.7395 91.7289 79.6137 91.3262 79.6137 90.8429C79.6137 90.3798 79.7496 89.9771 80.0214 89.6348C80.3033 89.2825 80.6808 89.0107 81.154 88.8194C81.6372 88.6281 82.1658 88.5325 82.7396 88.5325C83.4947 88.5325 84.1491 88.6835 84.7028 88.9855C85.2665 89.2775 85.6894 89.7104 85.9713 90.2842C86.0317 90.3949 86.0619 90.5409 86.0619 90.7221C86.0619 90.9637 85.9763 91.1752 85.8052 91.3564C85.634 91.5376 85.4226 91.6282 85.1709 91.6282C85.0098 91.6282 84.8538 91.5829 84.7028 91.4923C84.5618 91.3916 84.441 91.2607 84.3403 91.0997C84.1692 90.8178 83.9376 90.6013 83.6457 90.4503C83.3537 90.2892 83.0114 90.2087 82.6188 90.2087C82.2564 90.2087 81.9644 90.2691 81.7429 90.3899C81.5315 90.5006 81.4258 90.6517 81.4258 90.8429C81.4258 91.0443 81.5366 91.2154 81.758 91.3564C81.9896 91.4973 82.4527 91.6735 83.1474 91.8849C83.8017 92.0863 84.3403 92.2926 84.7632 92.5041C85.186 92.7155 85.5233 92.9823 85.7749 93.3044C86.0266 93.6165 86.1525 94.0091 86.1525 94.4823C86.1525 95.2273 85.8454 95.8112 85.2313 96.234C84.6273 96.6569 83.8017 96.8683 82.7547 96.8683ZM90.3062 90.707V93.9538C90.3062 94.5175 90.6133 94.885 91.2274 95.0562C91.4489 95.1166 91.6351 95.2374 91.7861 95.4186C91.9372 95.5998 92.0127 95.7961 92.0127 96.0075C92.0127 96.2391 91.917 96.4354 91.7257 96.5965C91.5445 96.7575 91.3281 96.8381 91.0764 96.8381C90.2408 96.8381 89.6015 96.5965 89.1586 96.1132C88.7156 95.63 88.4941 94.9202 88.4941 93.984V90.707H88.1166C87.8649 90.707 87.6484 90.6215 87.4672 90.4503C87.2961 90.2691 87.2105 90.0526 87.2105 89.801C87.2105 89.5493 87.2961 89.3379 87.4672 89.1667C87.6484 88.9855 87.8649 88.8949 88.1166 88.8949H88.4941V86.4787C88.4941 86.227 88.5797 86.0156 88.7508 85.8445C88.932 85.6633 89.1485 85.5726 89.4002 85.5726C89.6519 85.5726 89.8633 85.6633 90.0344 85.8445C90.2156 86.0156 90.3062 86.227 90.3062 86.4787V88.8949H91.4841C91.7358 88.8949 91.9472 88.9855 92.1184 89.1667C92.2996 89.3379 92.3902 89.5493 92.3902 89.801C92.3902 90.0526 92.2996 90.2691 92.1184 90.4503C91.9472 90.6215 91.7358 90.707 91.4841 90.707H90.3062Z" fill="white"/>
</svg>
