<svg width="113" height="112" viewBox="0 0 113 112" fill="none" xmlns="http://www.w3.org/2000/svg">
<rect x="0.0898438" width="112" height="112" rx="3.77528" fill="#333333"/>
<path d="M68.3679 45.5613C68.3679 46.3615 68.2342 49.5073 68.112 50.2721C67.8722 51.7127 67.355 53.0931 66.5889 54.3368C65.8554 55.5594 64.9243 56.6519 63.8334 57.5704C61.5453 59.4783 58.6524 60.5088 55.6733 60.477C53.4143 60.4494 51.2036 59.8183 49.2706 58.6489C48.6614 58.2674 48.0834 57.838 47.5422 57.3648C46.4519 56.4049 45.533 55.2662 44.825 53.9977C44.0819 52.6747 43.5932 51.2242 43.3842 49.7213C43.0637 47.5157 43.337 45.2645 44.1758 43.1995C45.0147 41.1347 46.3888 39.3307 48.1566 37.9735C49.2884 37.0995 50.5624 36.427 51.9225 35.9856C54.8726 35.0228 58.0746 35.186 60.9118 36.4431C61.2506 36.5926 61.584 36.757 61.9061 36.9389C62.2284 37.1211 62.5449 37.3397 62.8568 37.5525C63.474 37.9648 64.0514 38.4337 64.5814 38.9531C64.8336 39.2035 65.0754 39.4639 65.3098 39.7309C65.4256 39.8626 65.5395 39.9961 65.6514 40.1296C65.7551 40.2732 65.8747 40.4045 66.0083 40.521C65.9653 40.2276 65.94 39.9344 65.8877 39.6431C65.836 39.3404 65.8069 39.0343 65.8009 38.7272C65.7822 38.1034 65.8261 10.9321 65.8261 10.7705C65.8261 10.6771 65.7981 10.5249 65.8513 10.4381C65.9046 10.3513 82.1155 15.5121 82.1155 15.7222C82.1155 16.0388 82.108 25.5267 82.108 26.1635C82.1213 26.2801 82.1153 26.3981 82.0902 26.5127C82.0836 26.5304 82.065 26.5893 82.0472 26.5967C82.0295 26.6042 81.9595 26.5697 81.9399 26.5631C81.8569 26.5379 68.465 22.4135 68.4295 22.4088C68.3938 22.4042 68.3836 22.4088 68.3649 22.4574C68.3463 22.5059 68.3706 43.9506 68.3679 45.5613Z" fill="#FFB627"/>
<path d="M70.8763 27.7823V31.0364C71.1937 31.3197 71.505 31.6123 71.8101 31.9142C75.6776 35.79 77.9841 40.9532 78.2899 46.4199C78.5957 51.8867 76.8795 57.2749 73.4683 61.558C70.0569 65.8408 65.1892 68.7189 59.7926 69.6439C54.396 70.5688 48.8475 69.4759 44.2048 66.5733C39.5621 63.6709 36.1495 59.1616 34.6174 53.9049C33.0853 48.6484 33.5408 43.0118 35.8971 38.0693C38.2533 33.1268 42.3456 29.224 47.3942 27.1046C52.4427 24.9852 58.0945 24.7974 63.2727 26.5768V23.9259C60.912 23.2055 58.4575 22.8401 55.9895 22.8418C42.2455 22.8418 31.1021 33.9843 31.1021 47.7301C31.1021 61.4759 42.2455 72.6184 55.9895 72.6184C69.7334 72.6184 80.8787 61.4759 80.8787 47.7301C80.882 43.8555 79.9793 40.0338 78.2426 36.5703C76.5057 33.1068 73.9831 30.0972 70.8763 27.7823Z" fill="#FFB627"/>
<path d="M37.6821 78.0743C37.6821 78.2253 37.6318 78.3914 37.5311 78.5726L33.7709 84.6282V88.781C33.7709 89.0629 33.6803 89.3045 33.4991 89.5059C33.3179 89.6971 33.0964 89.7928 32.8346 89.7928C32.5729 89.7928 32.3464 89.6971 32.1551 89.5059C31.9739 89.3045 31.8833 89.0629 31.8833 88.781V84.6282L28.1684 78.4669C28.0778 78.3159 28.0325 78.1548 28.0325 77.9837C28.0325 77.7421 28.1231 77.5206 28.3043 77.3193C28.4956 77.1078 28.7171 77.0021 28.9687 77.0021C29.1399 77.0021 29.311 77.0525 29.4822 77.1531C29.6533 77.2538 29.7842 77.3746 29.8748 77.5156C30.2171 78.1196 30.7456 79.0357 31.4604 80.264C32.1853 81.4922 32.6282 82.2221 32.7893 82.4536L32.8497 82.6046L32.895 82.4536C33.2373 81.9201 33.7206 81.1398 34.3447 80.113C34.9689 79.076 35.4673 78.2404 35.8398 77.6062C35.9304 77.4552 36.0612 77.3293 36.2324 77.2286C36.4136 77.128 36.5948 77.0776 36.776 77.0776C37.0378 77.0776 37.2542 77.1783 37.4254 77.3797C37.5965 77.5709 37.6821 77.8025 37.6821 78.0743ZM46.2437 88.2223C46.5256 88.3129 46.727 88.4186 46.8478 88.5394C46.9786 88.6602 47.0441 88.8263 47.0441 89.0377C47.0441 89.2894 46.9333 89.5008 46.7119 89.672C46.5004 89.8532 46.2437 89.9438 45.9417 89.9438C45.4887 89.9438 45.096 89.8079 44.7638 89.5361C44.4416 89.2642 44.2504 88.9068 44.19 88.4639C44.1195 88.0411 44.0843 87.5024 44.0843 86.8481C44.0843 86.4554 44.0893 86.1534 44.0994 85.942C43.7369 86.1635 43.2487 86.385 42.6345 86.6064C42.0406 86.8078 41.6177 86.994 41.3661 87.1652C41.1244 87.3363 41.0036 87.5326 41.0036 87.7541C41.0036 87.885 41.059 87.9907 41.1697 88.0713C41.2905 88.1518 41.4365 88.1921 41.6077 88.1921C41.7285 88.1921 41.8594 88.1719 42.0003 88.1317C42.1513 88.0813 42.2772 88.0108 42.3778 87.9202C42.5188 87.7793 42.7101 87.7088 42.9517 87.7088C43.2034 87.7088 43.4047 87.7894 43.5557 87.9504C43.7067 88.1115 43.7822 88.3129 43.7822 88.5545C43.7822 88.6552 43.752 88.776 43.6916 88.9169C43.6413 89.0478 43.5809 89.1535 43.5104 89.234C43.0876 89.7173 42.4533 89.9589 41.6077 89.9589C40.913 89.9589 40.3492 89.7777 39.9163 89.4153C39.4834 89.0428 39.267 88.5595 39.267 87.9655C39.267 86.6668 40.2939 85.7054 42.3476 85.0812C42.9819 84.8799 43.455 84.6886 43.7671 84.5074C44.0792 84.3161 44.2403 84.1198 44.2504 83.9184C44.2403 83.707 44.1245 83.5409 43.903 83.4201C43.6816 83.2892 43.3846 83.2238 43.0121 83.2238C42.2369 83.2238 41.7083 83.4906 41.4265 84.0242C41.3459 84.1752 41.2301 84.301 41.0791 84.4017C40.9382 84.4923 40.7872 84.5376 40.6261 84.5376C40.3744 84.5376 40.158 84.452 39.9768 84.2809C39.7955 84.0997 39.7049 83.8832 39.7049 83.6315C39.7049 83.259 39.861 82.9117 40.1731 82.5895C40.4852 82.2573 40.8979 81.9905 41.4114 81.7892C41.9248 81.5878 42.4584 81.4872 43.0121 81.4872C43.9685 81.4872 44.7034 81.7036 45.2168 82.1365C45.7303 82.5694 45.987 83.1886 45.987 83.9939V84.1601C45.9266 85.9923 45.8964 87.0293 45.8964 87.2709C45.8964 87.432 45.9165 87.6233 45.9568 87.8447C45.9669 87.9253 46.0021 88.0058 46.0625 88.0864C46.133 88.1568 46.1934 88.2021 46.2437 88.2223ZM56.266 88.1166C56.4372 88.2575 56.563 88.3934 56.6436 88.5243C56.7342 88.6552 56.7795 88.8162 56.7795 89.0075C56.7795 89.229 56.6788 89.4052 56.4774 89.5361C56.2761 89.6669 56.0395 89.7324 55.7677 89.7324C55.2744 89.7324 54.8818 89.526 54.5898 89.1132C54.3079 88.6904 54.167 88.0511 54.167 87.1954L54.1821 85.1114C54.1821 84.6081 54.026 84.1953 53.7139 83.8731C53.4119 83.5409 53.0294 83.3748 52.5662 83.3748C51.4488 83.3748 50.88 84.0242 50.8598 85.3228V85.3077C50.8196 86.7172 50.7994 87.8649 50.7994 88.7508C50.7994 89.0528 50.7088 89.2844 50.5276 89.4455C50.3464 89.5965 50.145 89.672 49.9236 89.672C49.692 89.672 49.4756 89.5914 49.2742 89.4304C49.0829 89.2693 48.9873 89.0428 48.9873 88.7508C48.9873 87.7843 49.0125 86.3296 49.0628 84.3866C49.0628 83.8429 48.9722 83.4956 48.791 83.3446C48.6198 83.2037 48.4889 83.0677 48.3983 82.9369C48.3178 82.806 48.2775 82.6449 48.2775 82.4536C48.2775 82.2322 48.3782 82.056 48.5796 81.9251C48.7809 81.7942 49.0175 81.7288 49.2893 81.7288C49.8732 81.7288 50.296 81.9956 50.5578 82.5291C50.8095 82.2674 51.1065 82.066 51.4488 81.9251C51.8011 81.7741 52.1736 81.6986 52.5662 81.6986C53.2106 81.6986 53.7945 81.8244 54.318 82.0761C54.8415 82.3278 55.2492 82.6751 55.5412 83.1181C55.8432 83.5611 55.9942 84.0544 55.9942 84.598C55.9942 85.5242 55.9892 86.3497 55.9791 87.0746C55.9791 87.6082 56.0747 87.9555 56.266 88.1166ZM66.599 88.1166C66.7701 88.2575 66.896 88.3934 66.9765 88.5243C67.0671 88.6552 67.1124 88.8162 67.1124 89.0075C67.1124 89.229 67.0117 89.4052 66.8104 89.5361C66.609 89.6669 66.3725 89.7324 66.1006 89.7324C65.5167 89.7324 65.0838 89.4505 64.8019 88.8867C64.4697 89.1887 64.0821 89.4153 63.6392 89.5663C63.2063 89.7273 62.7331 89.8079 62.2196 89.8079C61.4143 89.8079 60.6894 89.6367 60.0451 89.2944C59.4108 88.9522 58.9125 88.4689 58.5501 87.8447C58.1977 87.2206 58.0215 86.5007 58.0215 85.6853C58.0215 84.8899 58.2027 84.1701 58.5652 83.5258C58.9377 82.8815 59.441 82.3781 60.0753 82.0157C60.7196 81.6432 61.4344 81.457 62.2196 81.457C63.1056 81.457 63.8808 81.7187 64.5452 82.2422C64.5754 79.7656 64.5905 77.9837 64.5905 76.8964C64.5905 76.6447 64.6761 76.4333 64.8472 76.2622C65.0184 76.091 65.2248 76.0055 65.4664 76.0055C65.7483 76.0055 65.9748 76.091 66.1459 76.2622C66.3171 76.4233 66.4027 76.6347 66.4027 76.8964L66.3423 83.405L66.312 87.0746C66.302 87.2759 66.3171 87.4773 66.3574 87.6786C66.4077 87.88 66.4882 88.0259 66.599 88.1166ZM62.2196 87.9957C62.8942 87.9957 63.4378 87.7894 63.8506 87.3766C64.2633 86.9638 64.4697 86.4001 64.4697 85.6853C64.4697 84.9906 64.2583 84.4168 63.8355 83.9637C63.4126 83.5107 62.8791 83.2842 62.2347 83.2842C61.7918 83.2842 61.384 83.3899 61.0116 83.6013C60.6491 83.8127 60.3622 84.1047 60.1508 84.4772C59.9494 84.8396 59.8488 85.2473 59.8488 85.7004C59.8488 86.4051 60.0652 86.9638 60.4981 87.3766C60.931 87.7894 61.5049 87.9957 62.2196 87.9957ZM75.2609 87.2407C75.5025 87.2407 75.6938 87.3162 75.8347 87.4672C75.9857 87.6182 76.0612 87.8045 76.0612 88.0259C76.0612 88.328 75.9857 88.5595 75.8347 88.7206C75.4723 89.1132 74.9941 89.4203 74.4001 89.6418C73.8162 89.8633 73.192 89.974 72.5276 89.974C71.7222 89.974 71.0024 89.8028 70.3681 89.4606C69.7339 89.1183 69.2355 88.6451 68.8731 88.0411C68.5207 87.4269 68.3446 86.7273 68.3446 85.942C68.3446 85.1265 68.5258 84.3916 68.8882 83.7372C69.2607 83.0728 69.759 82.5543 70.3832 82.1818C71.0074 81.7993 71.697 81.608 72.4521 81.608C73.1266 81.608 73.7256 81.7137 74.2491 81.9251C74.7827 82.1264 75.2005 82.4184 75.5025 82.801C75.8045 83.1735 75.9555 83.6114 75.9555 84.1148C75.9555 84.5779 75.8096 84.9906 75.5176 85.3531C75.2256 85.7155 74.8179 85.9974 74.2944 86.1987C73.781 86.4001 73.192 86.5007 72.5276 86.5007C71.5712 86.5007 70.7809 86.3246 70.1567 85.9722V86.0024C70.1567 86.6668 70.3681 87.1954 70.7909 87.588C71.2238 87.9706 71.8027 88.1619 72.5276 88.1619C72.9806 88.1619 73.3481 88.1115 73.63 88.0108C73.9118 87.9102 74.1988 87.7491 74.4907 87.5276C74.7525 87.3363 75.0092 87.2407 75.2609 87.2407ZM72.4521 83.4201C71.546 83.4201 70.9067 83.7372 70.5342 84.3715C71.1081 84.7339 71.7725 84.9151 72.5276 84.9151C73.0007 84.9151 73.3883 84.8497 73.6904 84.7188C73.9924 84.5779 74.1434 84.4117 74.1434 84.2205C74.1434 83.9889 73.9823 83.7976 73.6602 83.6466C73.3481 83.4956 72.9454 83.4201 72.4521 83.4201ZM82.0983 85.7155L84.303 88.4186C84.4339 88.5797 84.4993 88.7659 84.4993 88.9773C84.4993 89.229 84.4087 89.4404 84.2275 89.6116C84.0564 89.7928 83.845 89.8834 83.5933 89.8834C83.4624 89.8834 83.3315 89.8532 83.2006 89.7928C83.0698 89.7324 82.959 89.6468 82.8684 89.5361L80.9053 87.135L78.8666 89.5361C78.6552 89.7777 78.4136 89.8985 78.1418 89.8985C77.8901 89.8985 77.6736 89.8079 77.4924 89.6267C77.3213 89.4555 77.2357 89.2441 77.2357 88.9924C77.2357 88.7609 77.3011 88.5797 77.432 88.4488L79.7576 85.7155L77.6283 83.103C77.4975 82.962 77.432 82.7758 77.432 82.5442C77.432 82.2825 77.5176 82.066 77.6887 81.8949C77.87 81.7237 78.0864 81.6382 78.3381 81.6382C78.469 81.6382 78.5998 81.6734 78.7307 81.7439C78.8616 81.8043 78.9723 81.8848 79.0629 81.9855L80.9506 84.296L82.8684 82.0308C83.0798 81.7892 83.3215 81.6684 83.5933 81.6684C83.845 81.6684 84.0564 81.759 84.2275 81.9402C84.4087 82.1113 84.4993 82.3228 84.4993 82.5744C84.4993 82.7758 84.4339 82.957 84.303 83.1181L82.0983 85.7155ZM47.5882 103.796C47.5882 104.058 47.4875 104.289 47.2862 104.491C47.0949 104.692 46.8633 104.793 46.5915 104.793C46.3801 104.793 46.1788 104.722 45.9875 104.581C45.8063 104.45 45.6955 104.289 45.6552 104.098C45.4237 103.101 45.1015 101.727 44.6888 99.9755C44.276 98.2137 43.9639 96.8999 43.7525 96.0341L43.6921 95.6717C43.6619 95.7623 43.6418 95.8428 43.6317 95.9133C43.6317 95.9737 43.6267 96.014 43.6166 96.0341L41.1702 103.721C41.0997 103.932 40.9789 104.103 40.8078 104.234C40.6467 104.355 40.4605 104.415 40.249 104.415C40.0276 104.415 39.8212 104.35 39.6299 104.219C39.4487 104.088 39.3228 103.927 39.2524 103.736L36.6701 96.0492L36.6097 95.7019C36.5593 95.8831 36.5342 95.9989 36.5342 96.0492C36.3228 97.056 36.0459 98.405 35.7036 100.096C35.3613 101.778 35.1046 103.066 34.9334 103.962C34.8932 104.153 34.7774 104.32 34.5861 104.461C34.4049 104.591 34.2036 104.657 33.9821 104.657C33.7304 104.657 33.5139 104.566 33.3327 104.385C33.1616 104.204 33.076 103.992 33.076 103.751C33.076 103.711 33.0861 103.64 33.1062 103.539C33.1968 103.167 34.0223 99.6383 35.5828 92.9535C35.6331 92.732 35.7439 92.5558 35.915 92.425C36.0962 92.2941 36.2976 92.2286 36.5191 92.2286C36.7305 92.2286 36.9167 92.2941 37.0778 92.425C37.249 92.5458 37.3698 92.7119 37.4402 92.9233L40.0527 100.987C40.0527 101.017 40.0829 101.163 40.1433 101.425C40.2037 101.163 40.2339 101.017 40.2339 100.987L42.8011 92.8176C42.8716 92.6162 42.9974 92.4501 43.1787 92.3193C43.3599 92.1884 43.5612 92.1229 43.7827 92.1229C44.0243 92.1229 44.2458 92.1884 44.4472 92.3193C44.6485 92.4501 44.7693 92.6162 44.8096 92.8176C45.021 93.6129 45.3482 94.8965 45.7912 96.6684C46.2442 98.4402 46.6972 100.207 47.1503 101.969L47.558 103.6L47.5882 103.796ZM57.45 103.132C57.6111 103.273 57.7319 103.403 57.8125 103.524C57.9031 103.645 57.9484 103.796 57.9484 103.977C57.9484 104.199 57.8527 104.38 57.6615 104.521C57.4702 104.662 57.2386 104.732 56.9668 104.732C56.2923 104.732 55.8242 104.395 55.5624 103.721C55.2604 104.033 54.9181 104.274 54.5355 104.445C54.163 104.617 53.7654 104.702 53.3425 104.702C52.6982 104.702 52.1294 104.571 51.6361 104.31C51.1428 104.048 50.7602 103.69 50.4884 103.237C50.2166 102.784 50.0807 102.271 50.0807 101.697V99.3866C50.0807 98.853 49.9851 98.5057 49.7938 98.3446C49.6226 98.2037 49.4918 98.0677 49.4011 97.9369C49.3206 97.806 49.2803 97.6449 49.2803 97.4536C49.2803 97.2322 49.381 97.056 49.5824 96.9251C49.7837 96.7942 50.0203 96.7288 50.2921 96.7288C50.7955 96.7288 51.1881 96.9503 51.47 97.3932C51.762 97.8362 51.9029 98.5057 51.8928 99.4017V101.304C51.8928 101.757 52.0438 102.135 52.3459 102.437C52.658 102.739 53.0254 102.89 53.4482 102.89C54.002 102.89 54.45 102.734 54.7922 102.422C55.1446 102.1 55.3208 101.657 55.3208 101.093C55.3611 98.9184 55.3862 97.7204 55.3963 97.4989C55.4064 97.2473 55.502 97.0509 55.6832 96.91C55.8745 96.759 56.0809 96.6835 56.3024 96.6835C56.5339 96.6835 56.7403 96.759 56.9215 96.91C57.1128 97.061 57.2084 97.2624 57.2084 97.514L57.148 102.075C57.148 102.276 57.1682 102.477 57.2084 102.679C57.2588 102.88 57.3393 103.031 57.45 103.132ZM62.6749 104.868C61.9702 104.868 61.3007 104.707 60.6665 104.385C60.0322 104.053 59.5792 103.62 59.3074 103.086C59.2268 102.925 59.1866 102.769 59.1866 102.618C59.1866 102.367 59.2721 102.155 59.4433 101.984C59.6245 101.803 59.8409 101.712 60.0926 101.712C60.2436 101.712 60.3846 101.752 60.5155 101.833C60.6463 101.903 60.7621 102.014 60.8628 102.165C61.0843 102.518 61.3611 102.779 61.6933 102.95C62.0256 103.112 62.3528 103.192 62.6749 103.192C63.1078 103.192 63.4803 103.132 63.7924 103.011C64.1045 102.88 64.2605 102.704 64.2605 102.482C64.2605 102.331 64.1196 102.18 63.8377 102.029C63.5558 101.868 63.0675 101.667 62.3729 101.425C61.7689 101.214 61.2705 101.012 60.8779 100.821C60.4953 100.62 60.1732 100.363 59.9114 100.051C59.6597 99.7289 59.5339 99.3262 59.5339 98.8429C59.5339 98.3798 59.6698 97.9771 59.9416 97.6348C60.2235 97.2825 60.601 97.0107 61.0742 96.8194C61.5574 96.6281 62.086 96.5325 62.6598 96.5325C63.4149 96.5325 64.0693 96.6835 64.623 96.9855C65.1867 97.2775 65.6096 97.7104 65.8915 98.2842C65.9519 98.3949 65.9821 98.5409 65.9821 98.7221C65.9821 98.9637 65.8965 99.1752 65.7253 99.3564C65.5542 99.5376 65.3428 99.6282 65.0911 99.6282C64.93 99.6282 64.774 99.5829 64.623 99.4923C64.482 99.3916 64.3612 99.2607 64.2605 99.0997C64.0894 98.8178 63.8578 98.6013 63.5659 98.4503C63.2739 98.2892 62.9316 98.2087 62.539 98.2087C62.1766 98.2087 61.8846 98.2691 61.6631 98.3899C61.4517 98.5006 61.346 98.6517 61.346 98.8429C61.346 99.0443 61.4568 99.2154 61.6782 99.3564C61.9098 99.4973 62.3729 99.6735 63.0675 99.8849C63.7219 100.086 64.2605 100.293 64.6834 100.504C65.1062 100.715 65.4435 100.982 65.6951 101.304C65.9468 101.617 66.0727 102.009 66.0727 102.482C66.0727 103.227 65.7656 103.811 65.1515 104.234C64.5475 104.657 63.7219 104.868 62.6749 104.868ZM69.1391 94.9166C68.8271 94.9166 68.5603 94.8109 68.3388 94.5995C68.1274 94.378 68.0217 94.1163 68.0217 93.8143C68.0217 93.5122 68.1274 93.2555 68.3388 93.0441C68.5603 92.8226 68.8271 92.7119 69.1391 92.7119C69.4412 92.7119 69.6979 92.8176 69.9093 93.029C70.1207 93.2404 70.2264 93.5022 70.2264 93.8143C70.2264 94.1163 70.1157 94.378 69.8942 94.5995C69.6828 94.8109 69.4311 94.9166 69.1391 94.9166ZM69.2751 104.687C69.0636 104.687 68.8673 104.612 68.6861 104.461C68.5049 104.299 68.4143 104.093 68.4143 103.841L68.4898 99.3866C68.5099 98.853 68.4244 98.5057 68.2331 98.3446C68.0619 98.2137 67.9311 98.0828 67.8404 97.952C67.7599 97.8211 67.7146 97.66 67.7045 97.4687C67.7045 97.2473 67.8052 97.0711 68.0066 96.9402C68.218 96.7993 68.4646 96.7288 68.7465 96.7288C69.2499 96.7288 69.6375 96.9452 69.9093 97.3781C70.1912 97.811 70.3221 98.4704 70.3019 99.3564C70.2516 101.44 70.2264 102.935 70.2264 103.841C70.2264 104.113 70.1258 104.325 69.9244 104.476C69.7231 104.617 69.5066 104.687 69.2751 104.687ZM75.931 104.853C75.1961 104.853 74.5165 104.682 73.8923 104.34C73.2782 103.987 72.79 103.504 72.4275 102.89C72.0651 102.276 71.8839 101.586 71.8839 100.821C71.8839 99.9957 72.05 99.2758 72.3822 98.6617C72.7245 98.0375 73.1977 97.5593 73.8017 97.2271C74.4158 96.8848 75.1155 96.7137 75.9008 96.7137C76.4746 96.7137 77.0032 96.8295 77.4864 97.061C77.9797 97.2825 78.3774 97.5996 78.6794 98.0124C78.9814 98.4151 79.1526 98.8681 79.1928 99.3715V99.4621C79.1928 99.7943 79.1073 100.046 78.9361 100.217C78.775 100.378 78.5586 100.459 78.2868 100.459C78.0653 100.459 77.8639 100.373 77.6827 100.202C77.5116 100.031 77.4159 99.7893 77.3958 99.4772C77.3656 99.2154 77.2045 98.9939 76.9126 98.8127C76.6307 98.6215 76.2934 98.5258 75.9008 98.5258C75.2363 98.5258 74.7028 98.7322 74.3001 99.145C73.8974 99.5577 73.696 100.137 73.696 100.882C73.696 101.304 73.7917 101.682 73.9829 102.014C74.1843 102.336 74.4561 102.588 74.7984 102.769C75.1407 102.95 75.5182 103.041 75.931 103.041C76.3035 103.041 76.6508 102.981 76.973 102.86C77.2951 102.729 77.5669 102.558 77.7884 102.346C77.8891 102.256 77.9998 102.18 78.1207 102.12C78.2515 102.059 78.3723 102.029 78.4831 102.029C78.7448 102.029 78.9613 102.115 79.1324 102.286C79.3036 102.457 79.3891 102.674 79.3891 102.935C79.3891 103.026 79.369 103.132 79.3287 103.252C79.2885 103.363 79.2381 103.454 79.1777 103.524C78.8656 103.917 78.4076 104.239 77.8035 104.491C77.1995 104.732 76.5753 104.853 75.931 104.853Z" fill="white"/>
</svg>
