<svg width="113" height="112" viewBox="0 0 113 112" fill="none" xmlns="http://www.w3.org/2000/svg">
<rect x="0.943848" width="112" height="112" rx="3.77528" fill="#333333"/>
<path d="M64.4788 55.9172C64.3738 60.037 63.9446 64.106 62.6338 68.0383C62.0186 69.8826 61.1962 71.6247 59.7395 72.9855C58.0482 74.5619 56.6486 74.5774 54.9474 72.9453C53.1419 71.2103 52.2821 68.9368 51.657 66.5965C50.4519 62.0863 50.1242 57.4528 50.2095 52.8087C50.28 48.9278 53.5414 45.8369 57.3272 45.8136C61.0284 45.7911 64.1356 48.6466 64.4604 52.4436C64.5633 53.5923 64.4788 54.7586 64.4788 55.9172Z" fill="#DF7BFC"/>
<path d="M50.1632 36.5622C50.1441 32.4875 53.5381 29.1852 57.7037 29.2275C61.3294 29.2648 64.5895 32.6594 64.6261 36.436C64.6656 40.3881 61.3449 43.725 57.3675 43.7348C53.4387 43.744 50.1815 40.4995 50.1632 36.5622Z" fill="#DF7BFC"/>
<path d="M87.03 35.3343C85.5345 20.0017 71.7023 8.21945 55.9702 8.91289C40.448 9.59718 27.9195 22.7318 27.9625 38.4407C28.0048 54.0608 39.5636 64.2905 48.2831 66.4646C48.0097 65.1341 47.7806 63.7977 47.596 62.4554C47.2514 62.0086 46.7503 61.652 46.0611 61.3208C36.2902 56.6288 30.5228 45.423 32.2289 34.7571C34.5742 20.0919 48.1555 10.6789 62.8327 13.545C76.4141 16.1983 85.6156 30.3265 82.5346 43.8128C80.6255 52.17 75.7693 58.1764 68.0624 61.9064C67.7643 62.0474 67.3873 62.0988 67.1667 62.361C66.9786 63.8134 66.7383 65.2574 66.4352 66.6922C76.4881 64.1228 88.7051 52.571 87.03 35.3343Z" fill="#DF7BFC"/>
<path d="M76.2093 34.2747C74.0247 25.1641 65.7858 19.0591 56.1769 19.3487C47.4384 19.6116 39.6294 26.4869 38.0057 35.2973C36.2904 44.5996 41.9113 52.7038 46.9662 55.1133C46.9028 53.479 46.8852 51.842 46.9049 50.2028C46.8205 50.0778 46.7232 49.9621 46.6146 49.8575C43.7041 46.9928 42.1861 43.5101 41.9092 39.4276C41.2453 29.6222 50.833 21.3572 60.4088 23.5454C66.3608 24.9055 70.4503 28.446 72.1607 34.3226C73.8964 40.2987 72.3876 45.5664 67.9288 49.9533C67.8911 49.9898 67.8516 50.0244 67.8104 50.0569C67.8471 51.379 67.7738 52.7102 67.7738 54.035C67.7649 54.3973 67.7538 54.759 67.7407 55.1203C73.5955 51.9456 78.389 43.3663 76.2093 34.2747Z" fill="#DF7BFC"/>
<path d="M44.7694 88.3733C44.8197 88.4941 44.8449 88.5897 44.8449 88.6602C44.8449 88.9219 44.7543 89.1485 44.5731 89.3397C44.4019 89.521 44.1855 89.6116 43.9237 89.6116C43.7425 89.6116 43.5714 89.5612 43.4103 89.4606C43.2593 89.3599 43.1485 89.224 43.078 89.0528L41.9002 86.0024H37.2943L36.1315 89.0679C36.0711 89.229 35.9604 89.3599 35.7993 89.4606C35.6483 89.5612 35.4771 89.6116 35.2859 89.6116C35.0241 89.6116 34.8077 89.521 34.6365 89.3397C34.4654 89.1585 34.3798 88.9421 34.3798 88.6904C34.3798 88.6099 34.405 88.5092 34.4553 88.3884L38.8195 77.7874C38.9001 77.5961 39.0058 77.4501 39.1367 77.3495C39.2776 77.2488 39.4236 77.1984 39.5746 77.1984C39.7457 77.1984 39.9068 77.2488 40.0578 77.3495C40.2088 77.4501 40.3246 77.6011 40.4052 77.8025L44.7694 88.3733ZM39.4689 80.3244L37.9437 84.3262H41.2508L39.7105 80.3244L39.5897 79.9015L39.4689 80.3244ZM51.4362 81.457C52.2214 81.457 52.9261 81.6432 53.5503 82.0157C54.1745 82.3781 54.6628 82.8815 55.0151 83.5258C55.3675 84.1701 55.5437 84.8899 55.5437 85.6853C55.5437 86.5007 55.3625 87.2357 55 87.89C54.6477 88.5344 54.1493 89.0377 53.505 89.4002C52.8708 89.7626 52.151 89.9438 51.3456 89.9438C50.51 89.9438 49.77 89.6317 49.1257 89.0075L49.0955 91.0915C49.0754 92.2895 49.0653 92.8885 49.0653 92.8885C49.0552 93.11 48.9646 93.3113 48.7935 93.4926C48.6324 93.6838 48.4059 93.7795 48.1139 93.7795C47.8522 93.7795 47.6408 93.6889 47.4797 93.5077C47.3287 93.3365 47.2532 93.1301 47.2532 92.8885C47.2532 91.0663 47.2834 88.2323 47.3438 84.3866C47.3438 83.853 47.2481 83.5057 47.0568 83.3446C46.8857 83.2037 46.7548 83.0677 46.6642 82.9369C46.5837 82.806 46.5434 82.6449 46.5434 82.4536C46.5434 82.2322 46.6441 82.056 46.8454 81.9251C47.0468 81.7942 47.2834 81.7288 47.5552 81.7288C47.8572 81.7288 48.124 81.8093 48.3555 81.9704C48.5871 82.1214 48.7683 82.358 48.8992 82.6802C49.2415 82.2976 49.6291 82.0006 50.062 81.7892C50.5049 81.5677 50.963 81.457 51.4362 81.457ZM51.3456 88.1317C52.0503 88.1317 52.6241 87.9051 53.0671 87.4521C53.5101 86.989 53.7315 86.4001 53.7315 85.6853C53.7315 85.2322 53.6258 84.8245 53.4144 84.4621C53.2131 84.0896 52.9312 83.7976 52.5688 83.5862C52.2063 83.3748 51.7986 83.2691 51.3456 83.2691C50.7012 83.2691 50.1777 83.4956 49.775 83.9486C49.3723 84.3916 49.171 84.9705 49.171 85.6853C49.171 86.4202 49.3673 87.0142 49.7599 87.4672C50.1526 87.9102 50.6811 88.1317 51.3456 88.1317ZM61.8477 81.457C62.6329 81.457 63.3377 81.6432 63.9618 82.0157C64.586 82.3781 65.0743 82.8815 65.4267 83.5258C65.779 84.1701 65.9552 84.8899 65.9552 85.6853C65.9552 86.5007 65.774 87.2357 65.4116 87.89C65.0592 88.5344 64.5609 89.0377 63.9165 89.4002C63.2823 89.7626 62.5625 89.9438 61.7571 89.9438C60.9215 89.9438 60.1815 89.6317 59.5372 89.0075L59.507 91.0915C59.4869 92.2895 59.4768 92.8885 59.4768 92.8885C59.4667 93.11 59.3761 93.3113 59.205 93.4926C59.0439 93.6838 58.8174 93.7795 58.5254 93.7795C58.2637 93.7795 58.0523 93.6889 57.8912 93.5077C57.7402 93.3365 57.6647 93.1301 57.6647 92.8885C57.6647 91.0663 57.6949 88.2323 57.7553 84.3866C57.7553 83.853 57.6596 83.5057 57.4684 83.3446C57.2972 83.2037 57.1663 83.0677 57.0757 82.9369C56.9952 82.806 56.9549 82.6449 56.9549 82.4536C56.9549 82.2322 57.0556 82.056 57.2569 81.9251C57.4583 81.7942 57.6949 81.7288 57.9667 81.7288C58.2687 81.7288 58.5355 81.8093 58.7671 81.9704C58.9986 82.1214 59.1798 82.358 59.3107 82.6802C59.653 82.2976 60.0406 82.0006 60.4735 81.7892C60.9164 81.5677 61.3745 81.457 61.8477 81.457ZM61.7571 88.1317C62.4618 88.1317 63.0356 87.9051 63.4786 87.4521C63.9216 86.989 64.1431 86.4001 64.1431 85.6853C64.1431 85.2322 64.0373 84.8245 63.8259 84.4621C63.6246 84.0896 63.3427 83.7976 62.9803 83.5862C62.6178 83.3748 62.2101 83.2691 61.7571 83.2691C61.1128 83.2691 60.5893 83.4956 60.1866 83.9486C59.7839 84.3916 59.5825 84.9705 59.5825 85.6853C59.5825 86.4202 59.7788 87.0142 60.1715 87.4672C60.5641 87.9102 61.0926 88.1317 61.7571 88.1317ZM69.8732 87.0746C69.8732 87.5981 69.9689 87.9454 70.1601 88.1166C70.3414 88.2676 70.4722 88.4085 70.5528 88.5394C70.6434 88.6602 70.6887 88.8162 70.6887 89.0075C70.6887 89.229 70.588 89.4052 70.3867 89.5361C70.1853 89.6669 69.9487 89.7324 69.6769 89.7324C69.1735 89.7324 68.7708 89.5159 68.4688 89.083C68.1769 88.6401 68.0309 87.9706 68.0309 87.0746C68.0812 80.8026 68.1165 77.4703 68.1366 77.0776C68.1567 76.7353 68.2423 76.4837 68.3933 76.3226C68.5544 76.1514 68.7608 76.0659 69.0125 76.0659C69.2843 76.0659 69.5058 76.1665 69.6769 76.3679C69.8581 76.5692 69.9487 76.8058 69.9487 77.0776L69.8732 87.0746ZM78.998 87.2407C79.2396 87.2407 79.4309 87.3162 79.5718 87.4672C79.7228 87.6182 79.7983 87.8045 79.7983 88.0259C79.7983 88.328 79.7228 88.5595 79.5718 88.7206C79.2094 89.1132 78.7312 89.4203 78.1372 89.6418C77.5533 89.8633 76.9291 89.974 76.2647 89.974C75.4593 89.974 74.7394 89.8028 74.1052 89.4606C73.471 89.1183 72.9726 88.6451 72.6102 88.0411C72.2578 87.4269 72.0816 86.7273 72.0816 85.942C72.0816 85.1265 72.2629 84.3916 72.6253 83.7372C72.9978 83.0728 73.4961 82.5543 74.1203 82.1818C74.7445 81.7993 75.4341 81.608 76.1892 81.608C76.8637 81.608 77.4627 81.7137 77.9862 81.9251C78.5198 82.1264 78.9376 82.4184 79.2396 82.801C79.5416 83.1735 79.6926 83.6114 79.6926 84.1148C79.6926 84.5779 79.5466 84.9906 79.2547 85.3531C78.9627 85.7155 78.555 85.9974 78.0315 86.1987C77.5181 86.4001 76.9291 86.5007 76.2647 86.5007C75.3083 86.5007 74.518 86.3246 73.8938 85.9722V86.0024C73.8938 86.6668 74.1052 87.1954 74.528 87.588C74.9609 87.9706 75.5398 88.1619 76.2647 88.1619C76.7177 88.1619 77.0852 88.1115 77.367 88.0108C77.6489 87.9102 77.9359 87.7491 78.2278 87.5276C78.4896 87.3363 78.7463 87.2407 78.998 87.2407ZM76.1892 83.4201C75.2831 83.4201 74.6438 83.7372 74.2713 84.3715C74.8452 84.7339 75.5096 84.9151 76.2647 84.9151C76.7378 84.9151 77.1254 84.8497 77.4274 84.7188C77.7295 84.5779 77.8805 84.4117 77.8805 84.2205C77.8805 83.9889 77.7194 83.7976 77.3972 83.6466C77.0852 83.4956 76.6825 83.4201 76.1892 83.4201ZM27.8135 92.1984C29.0216 92.1984 29.968 92.4854 30.6525 93.0592C31.3472 93.633 31.6945 94.4284 31.6945 95.4452C31.6945 96.1499 31.5385 96.764 31.2264 97.2875C30.9143 97.811 30.4663 98.2188 29.8824 98.5107C29.3085 98.7926 28.629 98.9335 27.8437 98.9335H25.8202V103.675C25.8202 103.927 25.7195 104.143 25.5182 104.325C25.3269 104.496 25.1004 104.581 24.8386 104.581C24.5769 104.581 24.3503 104.496 24.1591 104.325C23.9678 104.143 23.8721 103.927 23.8721 103.675V93.1951C23.8721 92.9334 23.9627 92.7119 24.144 92.5307C24.3352 92.3495 24.5769 92.2488 24.8688 92.2286C25.2111 92.2186 25.6893 92.2135 26.3034 92.2135C26.9175 92.2035 27.4209 92.1984 27.8135 92.1984ZM27.8437 97.1214C28.4679 97.1214 28.9411 96.9855 29.2632 96.7137C29.5955 96.4419 29.7616 96.0694 29.7616 95.5962C29.7616 95.1734 29.5955 94.826 29.2632 94.5542C28.9411 94.2824 28.4578 94.1465 27.8135 94.1465L25.8202 94.1616V97.1214H27.8437ZM36.1937 104.944C35.4185 104.944 34.7188 104.763 34.0946 104.4C33.4805 104.038 32.9973 103.534 32.6449 102.89C32.3026 102.246 32.1315 101.516 32.1315 100.7C32.1315 99.895 32.3026 99.1701 32.6449 98.5258C32.9973 97.8815 33.4805 97.3781 34.0946 97.0157C34.7188 96.6533 35.4185 96.4721 36.1937 96.4721C36.9689 96.4721 37.6635 96.6533 38.2777 97.0157C38.8918 97.3781 39.37 97.8815 39.7123 98.5258C40.0646 99.1701 40.2408 99.895 40.2408 100.7C40.2408 101.516 40.0646 102.246 39.7123 102.89C39.37 103.534 38.8918 104.038 38.2777 104.4C37.6635 104.763 36.9689 104.944 36.1937 104.944ZM36.1937 103.132C36.8582 103.132 37.3968 102.91 37.8095 102.467C38.2223 102.014 38.4287 101.425 38.4287 100.7C38.4287 99.9856 38.2223 99.4067 37.8095 98.9637C37.3968 98.5107 36.8582 98.2842 36.1937 98.2842C35.5192 98.2842 34.9755 98.5107 34.5628 98.9637C34.15 99.4067 33.9436 99.9856 33.9436 100.7C33.9436 101.425 34.15 102.014 34.5628 102.467C34.9755 102.91 35.5192 103.132 36.1937 103.132ZM50.0587 103.117C50.2298 103.257 50.3556 103.393 50.4362 103.524C50.5268 103.655 50.5721 103.816 50.5721 104.008C50.5721 104.229 50.4714 104.405 50.2701 104.536C50.0687 104.667 49.8321 104.732 49.5603 104.732C48.9764 104.732 48.5435 104.45 48.2616 103.887C47.9294 104.189 47.5418 104.415 47.0988 104.566C46.6659 104.727 46.1928 104.808 45.6793 104.808C44.8739 104.808 44.1491 104.637 43.5048 104.294C42.8705 103.952 42.3722 103.469 42.0098 102.845C41.6574 102.221 41.4812 101.501 41.4812 100.685C41.4812 99.8899 41.6624 99.1701 42.0249 98.5258C42.3974 97.8815 42.9007 97.3781 43.535 97.0157C44.1793 96.6432 44.8941 96.457 45.6793 96.457C46.5653 96.457 47.3405 96.7187 48.0049 97.2422C48.0351 94.7656 48.0502 92.9837 48.0502 91.8964C48.0502 91.6447 48.1358 91.4333 48.3069 91.2622C48.4781 91.091 48.6845 91.0055 48.9261 91.0055C49.208 91.0055 49.4345 91.091 49.6056 91.2622C49.7768 91.4233 49.8623 91.6347 49.8623 91.8964L49.8019 98.405L49.7717 102.075C49.7617 102.276 49.7768 102.477 49.817 102.679C49.8674 102.88 49.9479 103.026 50.0587 103.117ZM45.6793 102.996C46.3539 102.996 46.8975 102.789 47.3103 102.377C47.723 101.964 47.9294 101.4 47.9294 100.685C47.9294 99.9906 47.718 99.4168 47.2952 98.9637C46.8723 98.5107 46.3388 98.2842 45.6944 98.2842C45.2515 98.2842 44.8437 98.3899 44.4712 98.6013C44.1088 98.8127 43.8219 99.1047 43.6105 99.4772C43.4091 99.8396 43.3085 100.247 43.3085 100.7C43.3085 101.405 43.5249 101.964 43.9578 102.377C44.3907 102.789 44.9645 102.996 45.6793 102.996ZM55.8514 104.853C55.1164 104.853 54.4369 104.682 53.8127 104.34C53.1986 103.987 52.7103 103.504 52.3479 102.89C51.9855 102.276 51.8043 101.586 51.8043 100.821C51.8043 99.9957 51.9704 99.2758 52.3026 98.6617C52.6449 98.0375 53.1181 97.5593 53.7221 97.2271C54.3362 96.8848 55.0359 96.7137 55.8212 96.7137C56.395 96.7137 56.9235 96.8295 57.4068 97.061C57.9001 97.2825 58.2977 97.5996 58.5998 98.0124C58.9018 98.4151 59.0729 98.8681 59.1132 99.3715V99.4621C59.1132 99.7943 59.0276 100.046 58.8565 100.217C58.6954 100.378 58.479 100.459 58.2071 100.459C57.9857 100.459 57.7843 100.373 57.6031 100.202C57.4319 100.031 57.3363 99.7893 57.3162 99.4772C57.286 99.2154 57.1249 98.9939 56.8329 98.8127C56.551 98.6215 56.2138 98.5258 55.8212 98.5258C55.1567 98.5258 54.6231 98.7322 54.2204 99.145C53.8177 99.5577 53.6164 100.137 53.6164 100.882C53.6164 101.304 53.712 101.682 53.9033 102.014C54.1047 102.336 54.3765 102.588 54.7188 102.769C55.0611 102.95 55.4386 103.041 55.8514 103.041C56.2239 103.041 56.5712 102.981 56.8933 102.86C57.2155 102.729 57.4873 102.558 57.7088 102.346C57.8095 102.256 57.9202 102.18 58.041 102.12C58.1719 102.059 58.2927 102.029 58.4034 102.029C58.6652 102.029 58.8817 102.115 59.0528 102.286C59.2239 102.457 59.3095 102.674 59.3095 102.935C59.3095 103.026 59.2894 103.132 59.2491 103.252C59.2088 103.363 59.1585 103.454 59.0981 103.524C58.786 103.917 58.3279 104.239 57.7239 104.491C57.1199 104.732 56.4957 104.853 55.8514 104.853ZM67.6922 103.222C67.9741 103.313 68.1754 103.419 68.2962 103.539C68.4271 103.66 68.4925 103.826 68.4925 104.038C68.4925 104.289 68.3818 104.501 68.1603 104.672C67.9489 104.853 67.6922 104.944 67.3902 104.944C66.9371 104.944 66.5445 104.808 66.2123 104.536C65.8901 104.264 65.6988 103.907 65.6384 103.464C65.5679 103.041 65.5327 102.502 65.5327 101.848C65.5327 101.455 65.5377 101.153 65.5478 100.942C65.1854 101.163 64.6971 101.385 64.083 101.606C63.489 101.808 63.0662 101.994 62.8145 102.165C62.5729 102.336 62.4521 102.533 62.4521 102.754C62.4521 102.885 62.5075 102.991 62.6182 103.071C62.739 103.152 62.885 103.192 63.0561 103.192C63.1769 103.192 63.3078 103.172 63.4488 103.132C63.5998 103.081 63.7256 103.011 63.8263 102.92C63.9672 102.779 64.1585 102.709 64.4001 102.709C64.6518 102.709 64.8532 102.789 65.0042 102.95C65.1552 103.112 65.2307 103.313 65.2307 103.554C65.2307 103.655 65.2005 103.776 65.1401 103.917C65.0897 104.048 65.0293 104.153 64.9589 104.234C64.536 104.717 63.9018 104.959 63.0561 104.959C62.3615 104.959 61.7977 104.778 61.3648 104.415C60.9319 104.043 60.7155 103.56 60.7155 102.966C60.7155 101.667 61.7423 100.705 63.7961 100.081C64.4303 99.8799 64.9035 99.6886 65.2156 99.5074C65.5277 99.3161 65.6888 99.1198 65.6988 98.9184C65.6888 98.707 65.573 98.5409 65.3515 98.4201C65.13 98.2892 64.833 98.2238 64.4605 98.2238C63.6853 98.2238 63.1568 98.4906 62.8749 99.0242C62.7944 99.1752 62.6786 99.301 62.5276 99.4017C62.3866 99.4923 62.2356 99.5376 62.0746 99.5376C61.8229 99.5376 61.6064 99.452 61.4252 99.2809C61.244 99.0997 61.1534 98.8832 61.1534 98.6315C61.1534 98.259 61.3094 97.9117 61.6215 97.5895C61.9336 97.2573 62.3464 96.9905 62.8598 96.7892C63.3733 96.5878 63.9068 96.4872 64.4605 96.4872C65.4169 96.4872 66.1519 96.7036 66.6653 97.1365C67.1787 97.5694 67.4355 98.1886 67.4355 98.9939V99.1601C67.375 100.992 67.3448 102.029 67.3448 102.271C67.3448 102.432 67.365 102.623 67.4053 102.845C67.4153 102.925 67.4506 103.006 67.511 103.086C67.5814 103.157 67.6418 103.202 67.6922 103.222ZM73.0482 104.868C72.3435 104.868 71.674 104.707 71.0398 104.385C70.4055 104.053 69.9525 103.62 69.6807 103.086C69.6001 102.925 69.5599 102.769 69.5599 102.618C69.5599 102.367 69.6455 102.155 69.8166 101.984C69.9978 101.803 70.2143 101.712 70.4659 101.712C70.617 101.712 70.7579 101.752 70.8888 101.833C71.0197 101.903 71.1354 102.014 71.2361 102.165C71.4576 102.518 71.7344 102.779 72.0667 102.95C72.3989 103.112 72.7261 103.192 73.0482 103.192C73.4811 103.192 73.8536 103.132 74.1657 103.011C74.4778 102.88 74.6339 102.704 74.6339 102.482C74.6339 102.331 74.4929 102.18 74.211 102.029C73.9291 101.868 73.4409 101.667 72.7462 101.425C72.1422 101.214 71.6438 101.012 71.2512 100.821C70.8686 100.62 70.5465 100.363 70.2847 100.051C70.033 99.7289 69.9072 99.3262 69.9072 98.8429C69.9072 98.3798 70.0431 97.9771 70.3149 97.6348C70.5968 97.2825 70.9743 97.0107 71.4475 96.8194C71.9308 96.6281 72.4593 96.5325 73.0331 96.5325C73.7882 96.5325 74.4426 96.6835 74.9963 96.9855C75.5601 97.2775 75.9829 97.7104 76.2648 98.2842C76.3252 98.3949 76.3554 98.5409 76.3554 98.7221C76.3554 98.9637 76.2698 99.1752 76.0987 99.3564C75.9275 99.5376 75.7161 99.6282 75.4644 99.6282C75.3033 99.6282 75.1473 99.5829 74.9963 99.4923C74.8553 99.3916 74.7345 99.2607 74.6339 99.0997C74.4627 98.8178 74.2312 98.6013 73.9392 98.4503C73.6472 98.2892 73.305 98.2087 72.9123 98.2087C72.5499 98.2087 72.2579 98.2691 72.0365 98.3899C71.825 98.5006 71.7193 98.6517 71.7193 98.8429C71.7193 99.0443 71.8301 99.2154 72.0516 99.3564C72.2831 99.4973 72.7462 99.6735 73.4409 99.8849C74.0952 100.086 74.6339 100.293 75.0567 100.504C75.4795 100.715 75.8168 100.982 76.0685 101.304C76.3201 101.617 76.446 102.009 76.446 102.482C76.446 103.227 76.1389 103.811 75.5248 104.234C74.9208 104.657 74.0952 104.868 73.0482 104.868ZM80.5997 98.707V101.954C80.5997 102.518 80.9068 102.885 81.5209 103.056C81.7424 103.117 81.9286 103.237 82.0796 103.419C82.2307 103.6 82.3062 103.796 82.3062 104.008C82.3062 104.239 82.2105 104.435 82.0192 104.596C81.838 104.758 81.6216 104.838 81.3699 104.838C80.5343 104.838 79.895 104.596 79.4521 104.113C79.0091 103.63 78.7876 102.92 78.7876 101.984V98.707H78.4101C78.1584 98.707 77.9419 98.6215 77.7607 98.4503C77.5896 98.2691 77.504 98.0526 77.504 97.801C77.504 97.5493 77.5896 97.3379 77.7607 97.1667C77.9419 96.9855 78.1584 96.8949 78.4101 96.8949H78.7876V94.4787C78.7876 94.227 78.8732 94.0156 79.0443 93.8445C79.2255 93.6633 79.442 93.5726 79.6937 93.5726C79.9454 93.5726 80.1568 93.6633 80.3279 93.8445C80.5091 94.0156 80.5997 94.227 80.5997 94.4787V96.8949H81.7776C82.0293 96.8949 82.2407 96.9855 82.4119 97.1667C82.5931 97.3379 82.6837 97.5493 82.6837 97.801C82.6837 98.0526 82.5931 98.2691 82.4119 98.4503C82.2407 98.6215 82.0293 98.707 81.7776 98.707H80.5997ZM87.1908 104.868C86.4861 104.868 85.8166 104.707 85.1823 104.385C84.5481 104.053 84.0951 103.62 83.8232 103.086C83.7427 102.925 83.7024 102.769 83.7024 102.618C83.7024 102.367 83.788 102.155 83.9591 101.984C84.1404 101.803 84.3568 101.712 84.6085 101.712C84.7595 101.712 84.9005 101.752 85.0313 101.833C85.1622 101.903 85.278 102.014 85.3787 102.165C85.6001 102.518 85.877 102.779 86.2092 102.95C86.5414 103.112 86.8686 103.192 87.1908 103.192C87.6237 103.192 87.9962 103.132 88.3083 103.011C88.6204 102.88 88.7764 102.704 88.7764 102.482C88.7764 102.331 88.6355 102.18 88.3536 102.029C88.0717 101.868 87.5834 101.667 86.8888 101.425C86.2847 101.214 85.7864 101.012 85.3938 100.821C85.0112 100.62 84.689 100.363 84.4273 100.051C84.1756 99.7289 84.0498 99.3262 84.0498 98.8429C84.0498 98.3798 84.1857 97.9771 84.4575 97.6348C84.7394 97.2825 85.1169 97.0107 85.5901 96.8194C86.0733 96.6281 86.6018 96.5325 87.1757 96.5325C87.9307 96.5325 88.5851 96.6835 89.1388 96.9855C89.7026 97.2775 90.1254 97.7104 90.4073 98.2842C90.4677 98.3949 90.4979 98.5409 90.4979 98.7221C90.4979 98.9637 90.4124 99.1752 90.2412 99.3564C90.0701 99.5376 89.8587 99.6282 89.607 99.6282C89.4459 99.6282 89.2898 99.5829 89.1388 99.4923C88.9979 99.3916 88.8771 99.2607 88.7764 99.0997C88.6053 98.8178 88.3737 98.6013 88.0818 98.4503C87.7898 98.2892 87.4475 98.2087 87.0549 98.2087C86.6925 98.2087 86.4005 98.2691 86.179 98.3899C85.9676 98.5006 85.8619 98.6517 85.8619 98.8429C85.8619 99.0443 85.9726 99.2154 86.1941 99.3564C86.4257 99.4973 86.8888 99.6735 87.5834 99.8849C88.2378 100.086 88.7764 100.293 89.1992 100.504C89.6221 100.715 89.9593 100.982 90.211 101.304C90.4627 101.617 90.5885 102.009 90.5885 102.482C90.5885 103.227 90.2815 103.811 89.6674 104.234C89.0633 104.657 88.2378 104.868 87.1908 104.868Z" fill="white"/>
</svg>
