<svg width="112" height="112" viewBox="0 0 112 112" fill="none" xmlns="http://www.w3.org/2000/svg">
<rect width="112" height="112" rx="3.77528" fill="#333333"/>
<path d="M56.6292 10.9189C39.7244 10.9189 26.0203 24.6234 26.0203 41.5278C26.0203 58.4335 39.7247 72.1367 56.6292 72.1367C73.5351 72.1367 87.238 58.4335 87.238 41.5278C87.238 24.6246 73.5351 10.9206 56.6287 10.9206L56.6289 10.9192L56.6292 10.9189ZM70.666 55.066C70.1176 55.9652 68.9406 56.2502 68.0415 55.6983C60.8549 51.3086 51.808 50.3143 41.1535 52.7486C40.6601 52.8609 40.1423 52.7726 39.714 52.5033C39.2857 52.2339 38.9818 51.8055 38.8693 51.3122C38.8132 51.0679 38.8059 50.815 38.8477 50.568C38.8894 50.3209 38.9796 50.0845 39.1128 49.8723C39.2461 49.6601 39.4199 49.4763 39.6243 49.3314C39.8288 49.1864 40.0597 49.0833 40.3041 49.0277C51.9642 46.3638 61.9654 47.5107 70.0337 52.4416C70.9328 52.9935 71.2179 54.1669 70.666 55.066ZM74.4124 46.7316C73.7213 47.8543 72.2521 48.2089 71.1301 47.5181C62.9025 42.4609 50.3608 40.9962 40.6293 43.9502C39.3672 44.3314 38.0343 43.6202 37.6512 42.3603C37.2709 41.0981 37.9826 39.7676 39.2426 39.384C50.3586 36.0108 64.1781 37.6448 73.6267 43.4509C74.7487 44.142 75.1033 45.6112 74.4124 46.7318V46.7316ZM74.7341 38.0528C64.8689 32.1931 48.5929 31.6541 39.1742 34.5131C37.6617 34.9718 36.0621 34.1179 35.604 32.6053C35.1455 31.0921 35.9985 29.4938 37.5122 29.0339C48.3241 25.7516 66.2982 26.386 77.6558 33.1286C79.0193 33.9359 79.4651 35.693 78.6573 37.0515C77.8533 38.4122 76.0914 38.8606 74.7355 38.0528H74.7341V38.0528Z" fill="#1ED760"/>
<path d="M33.2404 96.7928C32.4551 96.7928 31.7102 96.6015 31.0054 96.2189C30.3007 95.8263 29.747 95.3028 29.3443 94.6484C29.2638 94.5075 29.2235 94.3414 29.2235 94.1501C29.2235 93.838 29.299 93.5913 29.45 93.4101C29.6111 93.2289 29.8225 93.1383 30.0843 93.1383C30.3058 93.1383 30.497 93.1836 30.6581 93.2742C30.8192 93.3648 30.9601 93.5108 31.0809 93.7122C31.2722 94.0343 31.5692 94.3011 31.9719 94.5125C32.3847 94.7139 32.8075 94.8145 33.2404 94.8145C34.6901 94.8145 35.415 94.3112 35.415 93.3044C35.415 92.8715 35.2338 92.4789 34.8713 92.1265C34.519 91.7742 33.9552 91.4168 33.18 91.0544C32.2639 90.6315 31.5491 90.249 31.0356 89.9067C30.5323 89.5543 30.1698 89.1818 29.9484 88.7892C29.7269 88.3865 29.6161 87.9133 29.6161 87.3697C29.6161 86.7455 29.7822 86.1918 30.1145 85.7086C30.4467 85.2153 30.9048 84.8327 31.4887 84.5609C32.0726 84.279 32.727 84.138 33.4518 84.138C34.2572 84.138 34.9972 84.3193 35.6717 84.6817C36.3462 85.034 36.8596 85.5173 37.212 86.1314C37.3127 86.2925 37.363 86.4586 37.363 86.6297C37.363 86.8713 37.2825 87.0828 37.1214 87.264C36.9704 87.4452 36.7791 87.5358 36.5476 87.5358C36.3764 87.5358 36.2002 87.4905 36.019 87.3999C35.8378 87.2992 35.6969 87.1784 35.5962 87.0375C35.3646 86.7153 35.0727 86.4787 34.7203 86.3277C34.378 86.1767 33.9552 86.1012 33.4518 86.1012C32.8578 86.1012 32.3897 86.2119 32.0474 86.4334C31.7152 86.6448 31.5491 86.9569 31.5491 87.3697C31.5491 87.6214 31.6095 87.8328 31.7303 88.0039C31.8612 88.165 32.0776 88.3311 32.3796 88.5023C32.6917 88.6734 33.2001 88.9201 33.9049 89.2422C35.1331 89.8161 36.014 90.4151 36.5476 91.0393C37.0912 91.6634 37.363 92.4185 37.363 93.3044C37.363 93.9991 37.1919 94.6132 36.8496 95.1468C36.5073 95.6703 36.024 96.078 35.3999 96.3699C34.7757 96.6518 34.0559 96.7928 33.2404 96.7928ZM43.8192 88.457C44.6045 88.457 45.3092 88.6432 45.9334 89.0157C46.5576 89.3781 47.0458 89.8815 47.3982 90.5258C47.7505 91.1701 47.9267 91.8899 47.9267 92.6853C47.9267 93.5007 47.7455 94.2357 47.3831 94.89C47.0307 95.5344 46.5324 96.0377 45.8881 96.4002C45.2538 96.7626 44.534 96.9438 43.7286 96.9438C42.893 96.9438 42.1531 96.6317 41.5087 96.0075L41.4785 98.0915C41.4584 99.2895 41.4483 99.8885 41.4483 99.8885C41.4383 100.11 41.3477 100.311 41.1765 100.493C41.0154 100.684 40.7889 100.779 40.497 100.779C40.2352 100.779 40.0238 100.689 39.8627 100.508C39.7117 100.337 39.6362 100.13 39.6362 99.8885C39.6362 98.0663 39.6664 95.2323 39.7268 91.3866C39.7268 90.853 39.6312 90.5057 39.4399 90.3446C39.2687 90.2037 39.1379 90.0677 39.0473 89.9369C38.9667 89.806 38.9265 89.6449 38.9265 89.4536C38.9265 89.2322 39.0271 89.056 39.2285 88.9251C39.4298 88.7942 39.6664 88.7288 39.9382 88.7288C40.2402 88.7288 40.507 88.8093 40.7386 88.9704C40.9701 89.1214 41.1514 89.358 41.2822 89.6802C41.6245 89.2976 42.0121 89.0006 42.445 88.7892C42.888 88.5677 43.346 88.457 43.8192 88.457ZM43.7286 95.1317C44.4333 95.1317 45.0072 94.9051 45.4501 94.4521C45.8931 93.989 46.1146 93.4001 46.1146 92.6853C46.1146 92.2322 46.0089 91.8245 45.7975 91.4621C45.5961 91.0896 45.3142 90.7976 44.9518 90.5862C44.5894 90.3748 44.1816 90.2691 43.7286 90.2691C43.0843 90.2691 42.5608 90.4956 42.1581 90.9486C41.7554 91.3916 41.554 91.9705 41.554 92.6853C41.554 93.4202 41.7504 94.0142 42.143 94.4672C42.5356 94.9102 43.0642 95.1317 43.7286 95.1317ZM53.2341 96.9438C52.4589 96.9438 51.7592 96.7626 51.135 96.4002C50.5209 96.0377 50.0377 95.5344 49.6853 94.89C49.343 94.2457 49.1719 93.5158 49.1719 92.7004C49.1719 91.895 49.343 91.1701 49.6853 90.5258C50.0377 89.8815 50.5209 89.3781 51.135 89.0157C51.7592 88.6533 52.4589 88.4721 53.2341 88.4721C54.0093 88.4721 54.7039 88.6533 55.318 89.0157C55.9321 89.3781 56.4103 89.8815 56.7526 90.5258C57.105 91.1701 57.2812 91.895 57.2812 92.7004C57.2812 93.5158 57.105 94.2457 56.7526 94.89C56.4103 95.5344 55.9321 96.0377 55.318 96.4002C54.7039 96.7626 54.0093 96.9438 53.2341 96.9438ZM53.2341 95.1317C53.8985 95.1317 54.4371 94.9102 54.8499 94.4672C55.2626 94.0142 55.469 93.4252 55.469 92.7004C55.469 91.9856 55.2626 91.4067 54.8499 90.9637C54.4371 90.5107 53.8985 90.2842 53.2341 90.2842C52.5595 90.2842 52.0159 90.5107 51.6031 90.9637C51.1904 91.4067 50.984 91.9856 50.984 92.7004C50.984 93.4252 51.1904 94.0142 51.6031 94.4672C52.0159 94.9102 52.5595 95.1317 53.2341 95.1317ZM61.421 90.707V93.9538C61.421 94.5175 61.728 94.885 62.3422 95.0562C62.5636 95.1166 62.7499 95.2374 62.9009 95.4186C63.0519 95.5998 63.1274 95.7961 63.1274 96.0075C63.1274 96.2391 63.0318 96.4354 62.8405 96.5965C62.6593 96.7575 62.4428 96.8381 62.1911 96.8381C61.3556 96.8381 60.7163 96.5965 60.2733 96.1132C59.8303 95.63 59.6089 94.9202 59.6089 93.984V90.707H59.2313C58.9796 90.707 58.7632 90.6215 58.582 90.4503C58.4108 90.2691 58.3253 90.0526 58.3253 89.801C58.3253 89.5493 58.4108 89.3379 58.582 89.1667C58.7632 88.9855 58.9796 88.8949 59.2313 88.8949H59.6089V86.4787C59.6089 86.227 59.6944 86.0156 59.8656 85.8445C60.0468 85.6633 60.2632 85.5726 60.5149 85.5726C60.7666 85.5726 60.978 85.6633 61.1492 85.8445C61.3304 86.0156 61.421 86.227 61.421 86.4787V88.8949H62.5989C62.8506 88.8949 63.062 88.9855 63.2331 89.1667C63.4143 89.3379 63.5049 89.5493 63.5049 89.801C63.5049 90.0526 63.4143 90.2691 63.2331 90.4503C63.062 90.6215 62.8506 90.707 62.5989 90.707H61.421ZM66.3358 86.9166C66.0237 86.9166 65.7569 86.8109 65.5355 86.5995C65.324 86.378 65.2183 86.1163 65.2183 85.8143C65.2183 85.5122 65.324 85.2555 65.5355 85.0441C65.7569 84.8226 66.0237 84.7119 66.3358 84.7119C66.6378 84.7119 66.8946 84.8176 67.106 85.029C67.3174 85.2404 67.4231 85.5022 67.4231 85.8143C67.4231 86.1163 67.3124 86.378 67.0909 86.5995C66.8795 86.8109 66.6278 86.9166 66.3358 86.9166ZM66.4717 96.6871C66.2603 96.6871 66.064 96.6116 65.8828 96.4606C65.7016 96.2995 65.611 96.0931 65.611 95.8414L65.6865 91.3866C65.7066 90.853 65.621 90.5057 65.4298 90.3446C65.2586 90.2137 65.1277 90.0828 65.0371 89.952C64.9566 89.8211 64.9113 89.66 64.9012 89.4687C64.9012 89.2473 65.0019 89.0711 65.2032 88.9402C65.4146 88.7993 65.6613 88.7288 65.9432 88.7288C66.4466 88.7288 66.8342 88.9452 67.106 89.3781C67.3879 89.811 67.5187 90.4704 67.4986 91.3564C67.4483 93.4403 67.4231 94.9353 67.4231 95.8414C67.4231 96.1132 67.3224 96.3246 67.1211 96.4757C66.9197 96.6166 66.7033 96.6871 66.4717 96.6871ZM73.2032 88.6231C73.4549 88.6231 73.6663 88.7137 73.8374 88.8949C74.0186 89.066 74.1092 89.2775 74.1092 89.5291C74.1092 89.7808 74.0186 89.9973 73.8374 90.1785C73.6663 90.3496 73.4549 90.4352 73.2032 90.4352H72.0253V95.9018C72.0253 96.1535 71.9347 96.3649 71.7535 96.5361C71.5823 96.7173 71.3659 96.8079 71.1041 96.8079C70.8524 96.8079 70.641 96.7173 70.4699 96.5361C70.2987 96.3649 70.2131 96.1535 70.2131 95.9018V90.4352H69.7903C69.5386 90.4352 69.3222 90.3496 69.141 90.1785C68.9698 89.9973 68.8842 89.7808 68.8842 89.5291C68.8842 89.2775 68.9698 89.066 69.141 88.8949C69.3222 88.7137 69.5386 88.6231 69.7903 88.6231H70.2131V86.6146C70.2131 85.6079 70.4497 84.7622 70.9229 84.0776C71.3961 83.393 72.0202 82.9853 72.7954 82.8544C72.8256 82.8444 72.8659 82.8393 72.9162 82.8393C73.1679 82.8393 73.3844 82.9299 73.5656 83.1112C73.7468 83.2924 73.8374 83.5088 73.8374 83.7605C73.8374 83.9719 73.7619 84.1632 73.6109 84.3344C73.47 84.5055 73.2887 84.6112 73.0673 84.6515C72.7652 84.7018 72.5136 84.9082 72.3122 85.2706C72.1209 85.623 72.0253 86.071 72.0253 86.6146V88.6231H73.2032ZM82.1184 88.5174C82.3801 88.5174 82.5966 88.608 82.7677 88.7892C82.9489 88.9704 83.0395 89.1868 83.0395 89.4385C83.0395 89.5694 83.0194 89.6902 82.9791 89.801L79.672 96.9438C79.0982 98.172 78.5646 99.0932 78.0713 99.7073C77.588 100.321 77.0645 100.704 76.5008 100.855C76.4001 100.875 76.3195 100.885 76.2591 100.885C76.0276 100.885 75.8212 100.795 75.64 100.613C75.4588 100.432 75.3682 100.216 75.3682 99.964C75.3682 99.7627 75.4336 99.5764 75.5645 99.4053C75.6954 99.2442 75.8615 99.1335 76.0628 99.0731C76.3649 98.9925 76.6518 98.7559 76.9236 98.3633C77.2055 97.9807 77.5226 97.3968 77.875 96.6116L75.1568 89.7859C75.1064 89.6651 75.0813 89.5493 75.0813 89.4385C75.0813 89.2171 75.1719 89.0157 75.3531 88.8345C75.5343 88.6533 75.7457 88.5627 75.9873 88.5627C76.1786 88.5627 76.3498 88.618 76.5008 88.7288C76.6518 88.8395 76.7675 88.9805 76.8481 89.1516L78.8716 94.3917L81.2727 89.0761C81.3432 88.905 81.4539 88.769 81.6049 88.6684C81.766 88.5677 81.9372 88.5174 82.1184 88.5174Z" fill="white"/>
</svg>
