<?xml version="1.0" encoding="utf-8"?>
<!-- Generator: Adobe Illustrator 24.3.0, SVG Export Plug-In . SVG Version: 6.00 Build 0)  -->
<svg version="1.1" id="Layer_1" xmlns="http://www.w3.org/2000/svg" xmlns:xlink="http://www.w3.org/1999/xlink" x="0px" y="0px"
	 viewBox="0 0 240 240" style="enable-background:new 0 0 240 240;" xml:space="preserve">
<style type="text/css">
	.st0{fill:#22262B;}
</style>
<path class="st0" d="M120,7.7C58,7.7,7.7,58,7.7,120S58,232.3,120,232.3S232.3,182,232.3,120S182,7.7,120,7.7z M185.6,75.4
	l-21.4,100.9c-1.5,7.2-5.8,8.9-11.8,5.6l-32.6-24.1L104,173c-1.8,1.8-3.3,3.3-6.5,3.3c-4.2,0-3.5-1.6-5-5.6l-11.1-36.5L49.2,124
	c-7-2.1-7-6.9,1.6-10.4l125.7-48.5C182.2,62.6,187.7,66.6,185.6,75.4z"/>
<path class="st0" d="M155.6,89.5l-69.3,44.1l9.1,31.7c0.5,1.8,3.1,1.5,3.3-0.3l0.6-19.5l0,0l60.5-54.6
	C162.3,88.5,159.1,87.4,155.6,89.5z"/>
</svg>
